<?xml version="1.0" standalone="no"?>
<!DOCTYPE svg PUBLIC "-//W3C//DTD SVG 20010904//EN"
 "http://www.w3.org/TR/2001/REC-SVG-20010904/DTD/svg10.dtd">
<svg version="1.0" xmlns="http://www.w3.org/2000/svg"
 width="12919.000000pt" height="12430.000000pt" viewBox="0 0 12919.000000 12430.000000"
 preserveAspectRatio="xMidYMid meet">

<g transform="translate(0.000000,12430.000000) scale(0.100000,-0.100000)"
fill="#000000" stroke="none">
<path d="M17770 124289 c-3232 -101 -6353 -1042 -9085 -2739 -1175 -730 -2230
-1561 -3209 -2529 -574 -569 -977 -1015 -1459 -1616 -2214 -2762 -3578 -6114
-3921 -9635 -23 -234 -35 -382 -68 -855 -9 -131 -13 -12391 -15 -53543 l-3
-53372 2497 2 2498 3 6 52610 c3 28936 9 52630 12 52655 4 25 11 122 17 215
46 731 167 1562 336 2305 531 2331 1629 4512 3185 6325 466 544 1065 1145
1594 1600 2251 1936 5004 3144 7945 3484 427 50 802 76 1280 91 518 16 90521
8 90755 -8 1023 -71 1642 -155 2430 -328 3216 -707 6086 -2457 8209 -5004
1212 -1454 2160 -3187 2724 -4980 413 -1310 632 -2593 682 -3990 6 -180 10
-18419 10 -52628 l0 -52352 2498 2 2497 3 0 53260 c0 43501 -2 53305 -13
53505 -78 1471 -269 2700 -622 4000 -982 3617 -3052 6845 -5941 9262 -1368
1144 -2888 2080 -4524 2783 -1500 645 -3093 1088 -4710 1310 -542 74 -916 109
-1685 157 -140 9 -11663 12 -46930 13 -25710 1 -46855 -2 -46990 -6z"/>
<path d="M51780 115629 c-948 -64 -1870 -404 -2635 -974 -371 -275 -745 -649
-1020 -1020 -1026 -1379 -1267 -3180 -640 -4785 441 -1128 1298 -2070 2385
-2620 223 -112 414 -192 665 -275 411 -138 780 -212 1205 -245 105 -8 3561
-10 12660 -8 11944 3 12521 4 12650 21 652 86 1179 244 1705 512 479 244 878
536 1270 929 397 399 702 824 940 1311 258 527 406 1037 482 1655 26 209 26
859 0 1075 -88 737 -309 1396 -670 2001 -846 1419 -2320 2318 -3972 2424 -197
12 -24837 11 -25025 -1z"/>
<path d="M104350 112449 c-633 -43 -1288 -282 -1818 -662 -115 -82 -142 -113
-142 -164 0 -42 19 -71 129 -202 138 -164 167 -171 299 -73 328 243 776 443
1172 522 246 49 308 55 595 55 287 0 349 -6 595 -55 396 -79 844 -279 1172
-522 132 -98 161 -91 299 73 110 131 129 160 129 202 0 51 -27 82 -142 164
-318 228 -733 430 -1093 532 -407 115 -796 158 -1195 130z"/>
<path d="M99637 112283 c-4 -3 -7 -777 -7 -1720 l0 -1713 438 2 437 3 0 1715
0 1715 -431 3 c-237 1 -434 -1 -437 -5z"/>
<path d="M17366 112169 c-394 -40 -684 -234 -833 -555 -107 -232 -130 -564
-59 -829 91 -336 325 -569 659 -654 346 -89 703 -14 908 191 l62 63 -7 -150
c-26 -546 -148 -777 -433 -818 -53 -8 -98 -8 -164 0 -204 26 -337 140 -394
336 l-16 57 -285 0 c-327 0 -294 14 -269 -117 63 -332 262 -584 552 -703 277
-112 664 -115 933 -6 187 75 337 220 440 425 42 84 93 241 118 366 95 460 89
1197 -14 1591 -103 399 -310 645 -629 749 -153 50 -391 73 -569 54z m305 -533
c189 -41 325 -187 359 -387 17 -101 8 -267 -19 -343 -54 -153 -172 -261 -322
-295 -65 -15 -225 -13 -297 4 -194 46 -322 183 -358 384 -17 96 -17 146 1 244
35 200 167 346 351 391 77 19 202 19 285 2z"/>
<path d="M109640 112104 c-193 -52 -329 -181 -387 -369 -17 -57 -18 -121 -18
-1170 l0 -1110 28 -79 c64 -181 192 -299 368 -341 95 -22 4535 -23 4619 0 146
39 278 142 339 266 52 106 61 173 61 465 0 197 3 264 13 272 6 5 30 15 53 21
60 16 119 64 154 123 l30 53 0 328 c0 363 0 364 -66 437 -40 44 -88 73 -142
85 -22 4 -34 14 -37 28 -2 12 -6 148 -8 302 -3 272 -4 282 -28 346 -73 191
-201 305 -386 344 -103 22 -4511 21 -4593 -1z m4595 -288 c60 -28 87 -56 114
-116 20 -44 21 -60 21 -1124 0 -826 -3 -1088 -12 -1120 -7 -24 -32 -60 -58
-87 -83 -86 130 -79 -2360 -79 -2487 0 -2274 -7 -2359 78 -32 32 -51 62 -59
92 -10 35 -12 292 -10 1130 l3 1085 22 40 c27 51 57 79 113 104 45 20 52 21
2290 21 l2245 0 50 -24z"/>
<path d="M109750 111574 c-13 -32 -9 -2018 3 -2031 5 -4 983 -9 2173 -11 2155
-2 2164 -2 2184 18 20 20 20 32 20 1009 0 619 -4 999 -10 1015 l-10 26 -2175
0 -2175 0 -10 -26z"/>
<path d="M22810 111815 l0 -285 210 0 210 0 0 -1310 0 -1310 315 0 315 0 0
1595 0 1595 -525 0 -525 0 0 -285z"/>
<path d="M20767 111034 l-717 -1026 0 -239 0 -239 765 0 765 0 0 -310 0 -310
310 0 310 0 0 310 0 310 195 0 195 0 -2 268 -3 267 -192 3 -193 2 0 995 0 995
-358 0 -358 0 -717 -1026z m850 -961 c-2 -2 -201 -2 -441 -1 l-437 3 438 654
438 654 3 -653 c1 -359 1 -655 -1 -657z"/>
<path d="M98195 111468 c-3 -7 -4 -598 -3 -1313 l3 -1300 435 0 435 0 0 1310
0 1310 -433 3 c-341 2 -434 0 -437 -10z"/>
<path d="M19250 111392 c-72 -24 -94 -36 -142 -80 -52 -47 -82 -95 -102 -162
-21 -72 -20 -135 4 -214 27 -88 103 -171 192 -212 57 -26 74 -29 168 -29 93 0
111 3 162 27 112 52 185 145 208 266 32 160 -65 334 -218 393 -79 30 -199 35
-272 11z"/>
<path d="M104300 111334 c-330 -45 -676 -176 -955 -362 -148 -99 -204 -146
-222 -189 -25 -61 -7 -94 129 -236 123 -127 123 -127 169 -127 32 0 56 7 80
24 205 147 377 240 547 296 353 117 730 117 1084 0 135 -44 357 -158 477 -245
90 -64 111 -75 145 -75 23 1 50 6 62 13 19 11 95 90 201 209 83 93 68 151 -65
250 -258 192 -584 344 -880 408 -229 50 -548 64 -772 34z"/>
<path d="M96760 109745 l0 -895 435 0 435 0 0 895 0 895 -435 0 -435 0 0 -895z"/>
<path d="M104446 110250 c-221 -35 -448 -151 -595 -304 l-45 -46 21 -22 c11
-13 172 -204 357 -425 185 -222 345 -407 356 -413 21 -11 60 -13 85 -4 9 4
168 192 352 418 185 226 343 419 351 429 15 16 11 22 -44 78 -98 99 -249 194
-384 241 -134 46 -331 67 -454 48z"/>
<path d="M95320 109510 l0 -660 435 0 435 0 0 660 0 660 -435 0 -435 0 0 -660z"/>
<path d="M19260 109585 c-196 -55 -308 -247 -255 -440 29 -107 93 -182 202
-233 52 -24 69 -27 163 -27 94 0 111 3 166 28 77 36 145 104 180 182 37 81 39
191 4 280 -31 81 -116 164 -197 195 -76 29 -190 35 -263 15z"/>
<path d="M28260 95584 c-582 -47 -919 -374 -897 -868 6 -140 23 -213 73 -312
105 -210 297 -330 711 -445 323 -89 392 -112 492 -161 128 -62 198 -126 231
-215 19 -49 21 -73 18 -158 -3 -83 -9 -110 -31 -155 -51 -106 -163 -191 -298
-226 -80 -21 -263 -24 -339 -5 -183 45 -314 177 -350 354 l-11 57 -255 0 -254
0 0 -40 c0 -23 7 -76 16 -118 88 -427 508 -691 1064 -669 313 13 523 97 710
286 77 77 105 113 142 186 88 170 115 343 84 522 -21 120 -47 188 -108 279
-63 94 -161 176 -288 243 -115 60 -210 93 -484 172 -274 79 -314 93 -418 146
-103 53 -177 126 -202 199 -20 60 -21 184 -1 251 21 71 72 141 135 186 185
130 524 106 689 -48 70 -65 103 -125 125 -227 l6 -28 260 0 260 0 0 38 c0 66
-38 193 -86 290 -50 100 -144 211 -233 277 -113 82 -291 151 -451 174 -89 12
-247 20 -310 15z"/>
<path d="M30680 95584 c-582 -47 -919 -374 -897 -868 6 -140 23 -213 73 -312
105 -210 297 -330 711 -445 323 -89 392 -112 492 -161 128 -62 198 -126 231
-215 19 -49 21 -73 18 -158 -3 -83 -9 -110 -31 -155 -51 -106 -163 -191 -298
-226 -80 -21 -263 -24 -339 -5 -183 45 -314 177 -350 354 l-11 57 -255 0 -254
0 0 -40 c0 -23 7 -76 16 -118 88 -427 508 -691 1064 -669 313 13 523 97 710
286 77 77 105 113 142 186 88 170 115 343 84 522 -21 120 -47 188 -108 279
-63 94 -161 176 -288 243 -115 60 -210 93 -484 172 -274 79 -314 93 -418 146
-103 53 -177 126 -202 199 -20 60 -21 184 -1 251 21 71 72 141 135 186 185
130 524 106 689 -48 70 -65 103 -125 125 -227 l6 -28 260 0 260 0 0 38 c0 66
-38 193 -86 290 -50 100 -144 211 -233 277 -113 82 -291 151 -451 174 -89 12
-247 20 -310 15z"/>
<path d="M36267 95580 c-322 -31 -611 -151 -849 -354 -549 -469 -659 -1347
-246 -1969 79 -118 253 -292 376 -376 380 -257 879 -327 1319 -185 422 136
774 488 912 914 50 154 61 231 61 441 l0 189 -800 0 -800 0 0 -190 0 -190 540
0 540 0 0 -26 c0 -51 -42 -191 -86 -284 -114 -241 -292 -388 -559 -462 -110
-31 -361 -36 -485 -10 -378 79 -642 334 -740 717 -30 116 -42 293 -30 422 37
393 222 683 533 833 199 95 442 122 677 74 210 -43 391 -167 507 -345 l44 -69
284 0 c157 0 285 3 285 6 0 3 -18 44 -40 91 -111 238 -320 462 -546 589 -251
141 -600 212 -897 184z"/>
<path d="M21740 94100 l0 -1450 240 0 240 0 2 981 3 981 439 -981 439 -981
167 0 167 0 439 987 439 986 3 -986 2 -987 240 0 240 0 -2 1448 -3 1447 -256
3 -255 2 -504 -1130 c-277 -621 -506 -1130 -509 -1130 -3 1 -233 509 -511
1130 l-504 1130 -258 0 -258 0 0 -1450z"/>
<path d="M25330 94100 l0 -1450 805 0 805 0 0 195 0 195 -565 0 -565 0 0 440
0 440 500 0 500 0 0 200 0 200 -500 0 -500 0 0 420 0 420 563 2 562 3 3 193 2
192 -805 0 -805 0 0 -1450z"/>
<path d="M33130 95528 c-5 -13 -239 -664 -519 -1448 l-509 -1425 245 -3 c135
-1 248 0 251 2 2 3 50 135 106 293 l101 288 606 3 606 2 104 -295 104 -295
252 0 252 0 -30 83 c-16 45 -249 696 -518 1447 l-488 1365 -277 3 -276 2 -10
-22z m520 -1233 c127 -362 229 -659 227 -662 -2 -2 -213 -2 -469 -1 l-465 3
233 660 c128 363 234 662 234 664 1 17 36 -79 240 -664z"/>
<path d="M38210 94100 l0 -1450 805 0 805 0 0 195 0 195 -565 0 -565 0 0 440
0 440 500 0 500 0 0 200 0 200 -500 0 -500 0 0 420 0 420 563 2 562 3 3 193 2
192 -805 0 -805 0 0 -1450z"/>
<path d="M29465 87109 c-38 -5 -116 -21 -173 -35 -335 -83 -574 -261 -699
-519 -62 -130 -84 -224 -90 -385 -11 -290 65 -501 239 -666 163 -156 331 -231
812 -364 379 -104 496 -150 619 -241 67 -50 130 -138 152 -212 19 -63 19 -195
1 -262 -49 -185 -206 -318 -425 -361 -128 -25 -320 -16 -426 20 -196 67 -316
200 -361 404 l-16 72 -304 0 -304 0 0 -52 c0 -72 32 -219 64 -298 108 -264
343 -468 656 -568 468 -149 984 -84 1318 167 134 102 227 217 303 374 58 123
80 219 86 377 16 455 -204 742 -708 924 -52 19 -215 68 -360 110 -318 90 -387
114 -503 175 -206 106 -291 263 -256 471 33 194 170 332 375 375 90 19 260 19
350 0 103 -22 229 -87 296 -154 62 -63 112 -154 129 -236 l11 -55 316 0 316 0
-7 57 c-25 216 -128 428 -279 576 -147 143 -330 235 -575 288 -111 24 -436 35
-557 18z"/>
<path d="M13343 87048 c9 -50 973 -3447 980 -3454 3 -4 149 -3 323 2 l317 9
382 1295 c210 712 384 1301 386 1308 3 8 168 -576 368 -1297 l364 -1311 325 2
325 3 513 1730 c283 952 514 1733 514 1738 0 4 -137 7 -304 7 l-305 0 -14 -52
c-9 -29 -162 -624 -342 -1323 -377 -1468 -366 -1427 -371 -1422 -2 2 -164 624
-359 1383 -196 758 -358 1387 -361 1397 -5 16 -29 17 -324 17 l-319 0 -14 -47
c-8 -27 -182 -659 -388 -1405 -206 -747 -376 -1358 -379 -1358 -3 0 -161 616
-353 1368 -191 752 -352 1385 -358 1405 l-10 37 -301 0 -301 0 6 -32z"/>
<path d="M18647 87073 c-4 -3 -7 -786 -7 -1740 l0 -1733 290 0 290 0 0 760 0
760 815 0 815 0 0 -760 0 -760 285 0 285 0 0 1740 0 1740 -285 0 -285 0 0
-745 0 -745 -815 0 -815 0 -2 743 -3 742 -281 3 c-154 1 -283 -1 -287 -5z"/>
<path d="M22625 85353 c-340 -951 -620 -1734 -622 -1740 -4 -10 59 -13 295
-13 l299 0 124 355 124 355 726 0 727 0 36 -102 c20 -57 76 -215 125 -353 l88
-250 302 -3 c241 -2 302 0 298 10 -2 7 -282 790 -622 1741 l-618 1727 -332 0
-332 0 -618 -1727z m1229 234 c152 -434 276 -793 276 -798 0 -5 -227 -9 -561
-9 -525 0 -561 1 -555 17 4 9 131 369 283 800 152 431 277 782 279 780 1 -1
127 -357 278 -790z"/>
<path d="M25547 87073 c-4 -3 -7 -109 -7 -235 l0 -228 465 0 465 0 0 -1505 0
-1505 290 0 290 0 0 1505 0 1505 460 0 460 0 0 235 0 235 -1208 0 c-665 0
-1212 -3 -1215 -7z"/>
<path d="M32055 85353 c-340 -951 -620 -1734 -622 -1740 -4 -10 59 -13 295
-13 l299 0 124 355 124 355 726 0 727 0 36 -102 c20 -57 76 -215 125 -353 l88
-250 302 -3 c241 -2 302 0 298 10 -2 7 -282 790 -622 1741 l-618 1727 -332 0
-332 0 -618 -1727z m1229 234 c152 -434 276 -793 276 -798 0 -5 -227 -9 -561
-9 -525 0 -561 1 -555 17 4 9 131 369 283 800 152 431 277 782 279 780 1 -1
127 -357 278 -790z"/>
<path d="M35157 87073 c-4 -3 -7 -786 -7 -1740 l0 -1733 290 0 290 0 0 705 0
705 388 0 c410 0 519 8 682 50 382 98 644 338 743 680 34 116 51 265 42 370
-45 553 -428 900 -1060 960 -120 11 -1357 14 -1368 3z m1428 -486 c156 -37
293 -134 349 -250 82 -166 85 -407 7 -573 -40 -85 -125 -170 -211 -212 -131
-64 -145 -65 -592 -70 l-408 -3 0 566 0 567 393 -5 c314 -3 406 -7 462 -20z"/>
<path d="M38167 87073 c-4 -3 -7 -786 -7 -1740 l0 -1733 290 0 290 0 0 705 0
705 388 0 c410 0 519 8 682 50 382 98 644 338 743 680 34 116 51 265 42 370
-45 553 -428 900 -1060 960 -120 11 -1357 14 -1368 3z m1428 -486 c156 -37
293 -134 349 -250 82 -166 85 -407 7 -573 -40 -85 -125 -170 -211 -212 -131
-64 -145 -65 -592 -70 l-408 -3 0 566 0 567 393 -5 c314 -3 406 -7 462 -20z"/>
<path d="M80743 79986 c-88 -28 -157 -90 -196 -175 -15 -34 -21 -68 -21 -131
-1 -74 3 -92 27 -142 92 -188 342 -237 500 -97 181 159 113 476 -116 544 -61
18 -137 18 -194 1z"/>
<path d="M90880 79890 c-536 -51 -872 -394 -919 -935 -40 -462 150 -849 503
-1023 265 -131 607 -149 876 -48 120 44 191 88 273 169 l70 67 -7 -147 c-14
-295 -50 -481 -120 -628 -70 -147 -155 -225 -291 -268 -89 -28 -276 -30 -373
-4 -187 50 -301 156 -363 340 l-27 82 -231 3 -232 2 6 -37 c40 -249 118 -417
260 -558 123 -124 281 -206 474 -245 273 -55 566 -27 776 75 164 80 276 191
364 365 117 228 171 494 192 944 27 580 -39 1053 -188 1350 -105 210 -278 365
-486 437 -151 52 -379 76 -557 59z m325 -436 c191 -46 334 -191 391 -394 24
-86 29 -290 10 -380 -44 -205 -174 -355 -361 -412 -89 -28 -274 -30 -377 -5
-275 67 -428 279 -428 592 0 297 143 514 392 594 96 31 254 34 373 5z"/>
<path d="M95190 79890 c-536 -51 -872 -394 -919 -935 -40 -462 150 -849 503
-1023 265 -131 607 -149 876 -48 120 44 191 88 273 169 l70 67 -7 -147 c-14
-295 -50 -481 -120 -628 -70 -147 -155 -225 -291 -268 -89 -28 -276 -30 -373
-4 -187 50 -301 156 -363 340 l-27 82 -231 3 -232 2 6 -37 c40 -249 118 -417
260 -558 123 -124 281 -206 474 -245 273 -55 566 -27 776 75 164 80 276 191
364 365 117 228 171 494 192 944 27 580 -39 1053 -188 1350 -105 210 -278 365
-486 437 -151 52 -379 76 -557 59z m325 -436 c191 -46 334 -191 391 -394 24
-86 29 -290 10 -380 -44 -205 -174 -355 -361 -412 -89 -28 -274 -30 -377 -5
-275 67 -428 279 -428 592 0 297 143 514 392 594 96 31 254 34 373 5z"/>
<path d="M97915 79893 c-322 -26 -551 -125 -728 -312 -117 -126 -199 -308
-221 -498 l-7 -53 245 0 246 0 6 28 c23 104 61 180 127 249 99 104 229 153
412 153 319 0 515 -170 515 -447 0 -323 -246 -483 -745 -483 l-95 0 0 -204 0
-203 83 -6 c45 -4 114 -7 152 -7 39 0 102 -5 140 -10 377 -54 541 -238 522
-585 -17 -318 -243 -502 -592 -481 -55 3 -127 13 -160 22 -152 40 -283 144
-348 272 -31 62 -41 98 -63 210 l-4 22 -240 0 -240 0 0 -34 c0 -101 50 -287
107 -401 140 -277 441 -462 816 -504 304 -34 580 15 802 142 88 50 236 198
288 287 163 281 149 724 -31 987 -81 117 -211 219 -337 265 -36 12 -65 25 -65
28 0 3 31 20 68 37 258 120 422 391 422 698 0 458 -328 775 -851 824 -111 11
-141 11 -224 4z"/>
<path d="M88200 79879 c-377 -44 -666 -252 -794 -573 -43 -106 -75 -248 -83
-357 l-6 -99 241 0 241 0 6 58 c34 305 178 488 425 538 201 40 415 -18 514
-140 90 -111 120 -221 114 -426 -4 -125 -9 -156 -32 -225 -40 -117 -128 -279
-209 -388 -199 -265 -386 -447 -1019 -991 l-278 -238 0 -184 0 -184 1065 0
1065 0 0 210 0 210 -690 2 -690 3 187 166 c702 623 949 939 1070 1374 34 122
43 356 19 492 -75 431 -385 704 -856 753 -110 11 -184 11 -290 -1z"/>
<path d="M100410 79879 c-377 -44 -666 -252 -794 -573 -43 -106 -75 -248 -83
-357 l-6 -99 241 0 241 0 6 58 c34 305 178 488 425 538 201 40 415 -18 514
-140 90 -111 120 -221 114 -426 -4 -125 -9 -156 -32 -225 -40 -117 -128 -279
-209 -388 -199 -265 -386 -447 -1019 -991 l-278 -238 0 -184 0 -184 1065 0
1065 0 0 210 0 210 -690 2 -690 3 187 166 c702 623 949 939 1070 1374 34 122
43 356 19 492 -75 431 -385 704 -856 753 -110 11 -184 11 -290 -1z"/>
<path d="M29030 78250 l0 -1620 250 0 249 0 4 758 c3 844 1 812 74 961 68 137
199 239 354 276 83 19 265 19 348 0 200 -47 341 -194 403 -420 22 -79 22 -93
26 -827 l3 -748 250 0 249 0 0 704 c0 392 -5 759 -10 829 -40 488 -304 808
-740 897 -90 19 -127 21 -255 17 -197 -7 -313 -37 -465 -118 -78 -43 -197
-133 -223 -172 -15 -20 -16 29 -16 531 l-1 552 -250 0 -250 0 0 -1620z"/>
<path d="M75597 79863 c-4 -3 -7 -263 -7 -576 l0 -570 -74 70 c-126 121 -288
207 -485 261 -87 24 -113 26 -276 26 -161 0 -190 -3 -276 -26 -200 -54 -367
-147 -502 -281 -168 -166 -276 -376 -334 -647 -27 -130 -25 -430 5 -566 58
-269 166 -477 332 -644 223 -223 502 -329 830 -317 300 11 573 136 736 335
l44 54 0 -176 0 -176 255 0 255 0 0 1620 0 1620 -248 0 c-137 0 -252 -3 -255
-7z m-553 -1243 c140 -36 284 -128 371 -238 57 -70 127 -213 152 -307 14 -56
18 -105 17 -245 0 -160 -3 -183 -27 -263 -68 -221 -190 -371 -379 -467 -111
-55 -203 -73 -346 -68 -195 8 -316 62 -463 209 -74 73 -94 100 -138 190 -74
149 -95 255 -88 454 6 174 19 229 84 365 39 81 59 107 137 185 101 100 187
152 311 185 98 26 266 26 369 0z"/>
<path d="M92592 79593 l3 -228 203 -3 202 -2 0 -1365 0 -1365 255 0 255 0 0
1595 0 1595 -460 0 -460 0 2 -227z"/>
<path d="M39699 79653 c-23 -61 -1079 -3015 -1079 -3019 0 -2 118 -3 262 -2
l261 3 107 305 108 305 637 0 637 0 107 -305 107 -305 262 -3 c162 -1 262 1
262 7 0 12 -1068 2999 -1081 3023 -9 17 -31 18 -295 18 l-284 0 -11 -27z m546
-1295 l242 -693 -243 -3 c-133 -1 -355 -1 -492 0 l-250 3 246 697 c136 383
248 695 250 693 2 -2 113 -316 247 -697z"/>
<path d="M13314 79653 c4 -9 229 -443 501 -965 l495 -948 0 -555 0 -555 255 0
255 0 0 554 0 553 500 963 c275 530 500 965 500 967 0 2 -125 3 -277 3 l-278
-1 -344 -732 c-189 -403 -347 -736 -351 -740 -4 -4 -164 325 -356 732 l-349
741 -279 0 c-255 0 -278 -1 -272 -17z"/>
<path d="M24425 79623 c8 -27 199 -703 425 -1503 226 -800 415 -1465 420
-1478 l10 -23 278 7 c152 3 278 7 279 8 0 0 150 507 332 1126 182 619 335
1133 339 1143 4 11 116 -378 311 -1080 167 -604 310 -1119 318 -1145 l14 -48
284 0 284 0 11 38 c5 20 207 703 449 1517 l438 1480 -265 3 c-146 1 -267 1
-269 -1 -1 -2 -143 -548 -314 -1213 -171 -665 -314 -1212 -318 -1216 -3 -4
-100 358 -215 805 -115 447 -256 995 -314 1220 l-105 407 -282 0 -282 0 -75
-272 c-41 -150 -194 -704 -339 -1230 -145 -526 -266 -952 -270 -945 -3 7 -145
560 -315 1229 l-309 1218 -267 0 -267 0 14 -47z"/>
<path d="M37240 79340 l0 -300 -140 0 -140 0 0 -205 0 -205 139 0 140 0 4
-737 c3 -721 4 -740 25 -822 44 -168 146 -304 274 -364 134 -63 177 -70 501
-74 l297 -5 0 210 0 211 -218 3 c-210 3 -219 4 -267 28 -38 20 -55 37 -75 75
l-25 49 -3 713 -3 713 296 0 295 0 0 205 0 205 -295 0 -295 0 0 300 0 300
-255 0 -255 0 0 -300z"/>
<path d="M65680 79340 l0 -300 -140 0 -140 0 0 -205 0 -205 139 0 140 0 4
-737 c3 -721 4 -740 25 -822 44 -168 146 -304 274 -364 134 -63 177 -70 501
-74 l297 -5 0 210 0 211 -218 3 c-210 3 -219 4 -267 28 -38 20 -55 37 -75 75
l-25 49 -3 713 -3 713 296 0 295 0 0 205 0 205 -295 0 -295 0 0 300 0 300
-255 0 -255 0 0 -300z"/>
<path d="M17060 79066 c-380 -69 -658 -253 -840 -556 -260 -433 -227 -1074 76
-1470 57 -75 186 -198 259 -247 351 -236 865 -269 1264 -82 514 241 777 798
661 1399 -48 249 -152 452 -320 620 -152 153 -332 253 -558 312 -104 27 -137
30 -292 34 -118 2 -199 -1 -250 -10z m394 -446 c253 -65 432 -249 508 -525 18
-68 22 -106 22 -255 0 -202 -16 -278 -84 -415 -90 -182 -227 -301 -425 -367
-61 -20 -89 -23 -220 -23 -130 0 -159 3 -220 23 -107 36 -172 78 -260 166 -92
92 -150 195 -186 331 -31 114 -38 364 -14 490 32 174 113 326 227 429 68 62
193 128 283 150 92 22 276 20 369 -4z"/>
<path d="M22910 79073 c-218 -36 -399 -140 -515 -295 l-50 -67 -3 164 -2 165
-250 0 -250 0 0 -1205 0 -1205 250 0 249 0 3 733 c4 713 4 734 25 808 57 202
154 308 333 364 37 11 105 19 208 22 l152 6 0 258 0 259 -62 -1 c-35 -1 -74
-4 -88 -6z"/>
<path d="M32642 79065 c-232 -42 -426 -141 -587 -300 -164 -162 -277 -379
-331 -640 -28 -136 -26 -433 4 -571 53 -246 138 -422 287 -598 125 -147 339
-279 540 -333 91 -24 116 -27 280 -27 162 0 190 3 276 26 196 53 356 143 485
274 l74 75 0 -171 0 -170 255 0 255 0 0 1205 0 1205 -255 0 -255 0 0 -167 0
-167 -72 72 c-160 158 -334 247 -557 286 -112 19 -296 20 -399 1z m482 -445
c140 -36 284 -128 371 -238 57 -70 127 -213 152 -307 14 -56 18 -105 17 -245
0 -160 -3 -183 -27 -263 -68 -221 -190 -371 -379 -467 -111 -55 -203 -73 -346
-68 -195 8 -316 62 -463 209 -74 73 -94 100 -138 190 -74 149 -95 255 -88 454
6 174 19 229 84 365 39 81 59 107 137 185 101 100 187 152 311 185 98 26 266
26 369 0z"/>
<path d="M35475 79069 c-282 -41 -512 -172 -637 -363 -139 -214 -118 -535 47
-724 127 -144 316 -232 743 -346 274 -74 390 -124 459 -199 47 -50 58 -89 51
-172 -11 -132 -133 -221 -341 -246 -181 -22 -347 24 -457 127 -54 50 -110 150
-110 196 l0 28 -263 0 -264 0 9 -62 c57 -423 470 -718 1003 -718 449 0 790
197 891 514 70 222 20 449 -133 608 -131 135 -270 201 -670 317 -274 80 -350
108 -432 161 -82 53 -116 112 -116 200 0 118 70 199 208 242 58 18 95 22 192
22 129 0 205 -19 283 -68 81 -51 144 -146 160 -239 l8 -42 249 0 250 0 -3 50
c-2 28 -10 79 -19 115 -77 323 -326 535 -698 595 -97 16 -313 18 -410 4z"/>
<path d="M42992 79066 c-230 -44 -417 -140 -569 -293 l-73 -72 0 169 0 170
-250 0 -250 0 0 -1780 0 -1780 250 0 250 0 0 745 0 744 66 -64 c374 -369 956
-420 1397 -123 134 89 289 272 370 433 38 77 76 189 104 305 33 141 42 397 19
545 -52 337 -207 615 -445 796 -93 71 -267 154 -386 185 -124 32 -364 42 -483
20z m272 -446 c122 -31 228 -92 322 -186 70 -69 89 -95 132 -185 73 -150 86
-213 86 -399 0 -184 -20 -284 -85 -414 -77 -154 -181 -260 -331 -336 -111 -55
-203 -74 -346 -68 -196 9 -316 62 -463 208 -76 74 -93 98 -137 190 -63 132
-82 204 -89 351 -12 245 49 448 184 611 85 104 240 201 369 232 90 22 265 20
358 -4z"/>
<path d="M45962 79066 c-230 -44 -417 -140 -569 -293 l-73 -72 0 169 0 170
-250 0 -250 0 0 -1780 0 -1780 250 0 250 0 0 745 0 744 66 -64 c374 -369 956
-420 1397 -123 134 89 289 272 370 433 38 77 76 189 104 305 33 141 42 397 19
545 -52 337 -207 615 -445 796 -93 71 -267 154 -386 185 -124 32 -364 42 -483
20z m272 -446 c122 -31 228 -92 322 -186 70 -69 89 -95 132 -185 73 -150 86
-213 86 -399 0 -184 -20 -284 -85 -414 -77 -154 -181 -260 -331 -336 -111 -55
-203 -74 -346 -68 -196 9 -316 62 -463 208 -76 74 -93 98 -137 190 -63 132
-82 204 -89 351 -12 245 49 448 184 611 85 104 240 201 369 232 90 22 265 20
358 -4z"/>
<path d="M49692 79065 c-232 -42 -426 -141 -587 -300 -164 -162 -277 -379
-331 -640 -28 -136 -26 -433 4 -571 53 -246 138 -422 287 -598 125 -147 339
-279 540 -333 91 -24 116 -27 280 -27 162 0 190 3 276 26 196 53 356 143 485
274 l74 75 0 -171 0 -170 255 0 255 0 0 1205 0 1205 -255 0 -255 0 0 -167 0
-167 -72 72 c-160 158 -334 247 -557 286 -112 19 -296 20 -399 1z m482 -445
c140 -36 284 -128 371 -238 57 -70 127 -213 152 -307 14 -56 18 -105 17 -245
0 -160 -3 -183 -27 -263 -68 -221 -190 -371 -379 -467 -111 -55 -203 -73 -346
-68 -195 8 -316 62 -463 209 -74 73 -94 100 -138 190 -74 149 -95 255 -88 454
6 174 19 229 84 365 39 81 59 107 137 185 101 100 187 152 311 185 98 26 266
26 369 0z"/>
<path d="M52684 79064 c-304 -51 -569 -212 -736 -449 -285 -403 -305 -1054
-45 -1490 68 -115 212 -267 322 -340 196 -130 422 -195 685 -195 488 0 882
245 1055 658 20 48 39 99 42 115 l6 27 -269 0 -269 -1 -34 -72 c-25 -51 -55
-92 -105 -143 -115 -115 -230 -158 -426 -158 -200 0 -325 48 -450 174 -164
163 -228 369 -217 698 6 176 18 246 64 361 80 201 239 345 433 392 79 19 270
16 350 -5 152 -41 285 -149 350 -283 l35 -72 268 -1 c226 0 267 2 267 14 0 8
-12 48 -26 88 -139 385 -430 618 -854 683 -116 18 -337 18 -446 -1z"/>
<path d="M55304 79064 c-304 -51 -569 -212 -736 -449 -285 -403 -305 -1054
-45 -1490 68 -115 212 -267 322 -340 196 -130 422 -195 685 -195 488 0 882
245 1055 658 20 48 39 99 42 115 l6 27 -269 0 -269 -1 -34 -72 c-25 -51 -55
-92 -105 -143 -115 -115 -230 -158 -426 -158 -200 0 -325 48 -450 174 -164
163 -228 369 -217 698 6 176 18 246 64 361 80 201 239 345 433 392 79 19 270
16 350 -5 152 -41 285 -149 350 -283 l35 -72 268 -1 c226 0 267 2 267 14 0 8
-12 48 -26 88 -139 385 -430 618 -854 683 -116 18 -337 18 -446 -1z"/>
<path d="M57990 79066 c-380 -69 -658 -253 -840 -556 -260 -433 -227 -1074 76
-1470 57 -75 186 -198 259 -247 351 -236 865 -269 1264 -82 514 241 777 798
661 1399 -48 249 -152 452 -320 620 -152 153 -332 253 -558 312 -104 27 -137
30 -292 34 -118 2 -199 -1 -250 -10z m394 -446 c253 -65 432 -249 508 -525 18
-68 22 -106 22 -255 0 -202 -16 -278 -84 -415 -90 -182 -227 -301 -425 -367
-61 -20 -89 -23 -220 -23 -130 0 -159 3 -220 23 -107 36 -172 78 -260 166 -92
92 -150 195 -186 331 -31 114 -38 364 -14 490 32 174 113 326 227 429 68 62
193 128 283 150 92 22 276 20 369 -4z"/>
<path d="M63796 79065 c-195 -40 -343 -114 -468 -233 l-58 -55 0 131 0 132
-250 0 -250 0 0 -1205 0 -1205 250 0 249 0 4 758 c3 844 1 812 74 961 68 137
199 239 354 276 83 19 265 19 348 0 200 -47 341 -194 403 -420 22 -79 22 -93
26 -827 l3 -748 250 0 250 0 -4 793 c-4 753 -5 797 -25 887 -70 324 -225 537
-485 665 -141 70 -260 96 -447 101 -108 2 -176 -1 -224 -11z"/>
<path d="M69164 79064 c-304 -51 -569 -212 -736 -449 -285 -403 -305 -1054
-45 -1490 68 -115 212 -267 322 -340 196 -130 422 -195 685 -195 488 0 882
245 1055 658 20 48 39 99 42 115 l6 27 -269 0 -269 -1 -34 -72 c-25 -51 -55
-92 -105 -143 -115 -115 -230 -158 -426 -158 -200 0 -325 48 -450 174 -164
163 -228 369 -217 698 6 176 18 246 64 361 80 201 239 345 433 392 79 19 270
16 350 -5 152 -41 285 -149 350 -283 l35 -72 268 -1 c226 0 267 2 267 14 0 8
-12 48 -26 88 -139 385 -430 618 -854 683 -116 18 -337 18 -446 -1z"/>
<path d="M71850 79066 c-380 -69 -658 -253 -840 -556 -260 -433 -227 -1074 76
-1470 57 -75 186 -198 259 -247 351 -236 865 -269 1264 -82 514 241 777 798
661 1399 -48 249 -152 452 -320 620 -152 153 -332 253 -558 312 -104 27 -137
30 -292 34 -118 2 -199 -1 -250 -10z m394 -446 c253 -65 432 -249 508 -525 18
-68 22 -106 22 -255 0 -202 -16 -278 -84 -415 -90 -182 -227 -301 -425 -367
-61 -20 -89 -23 -220 -23 -130 0 -159 3 -220 23 -107 36 -172 78 -260 166 -92
92 -150 195 -186 331 -31 114 -38 364 -14 490 32 174 113 326 227 429 68 62
193 128 283 150 92 22 276 20 369 -4z"/>
<path d="M77615 79074 c-291 -43 -499 -139 -682 -317 -169 -164 -267 -351
-325 -622 -32 -147 -32 -446 0 -592 61 -278 165 -470 352 -645 451 -425 1262
-410 1682 30 108 114 217 290 243 395 l7 27 -270 0 -270 0 -32 -57 c-69 -123
-200 -219 -351 -260 -87 -23 -280 -22 -368 1 -276 74 -449 274 -496 574 l-7
42 920 0 c861 0 920 1 926 17 4 10 10 76 13 148 29 638 -314 1111 -897 1240
-73 16 -376 29 -445 19z m344 -440 c81 -20 185 -70 252 -121 123 -93 219 -279
219 -423 l0 -40 -660 0 -660 0 0 23 c0 41 30 141 64 212 94 198 249 320 461
361 85 16 230 11 324 -12z"/>
<path d="M82385 79069 c-282 -41 -512 -172 -637 -363 -139 -214 -118 -535 47
-724 127 -144 316 -232 743 -346 274 -74 390 -124 459 -199 47 -50 58 -89 51
-172 -11 -132 -133 -221 -341 -246 -181 -22 -347 24 -457 127 -54 50 -110 150
-110 196 l0 28 -263 0 -264 0 9 -62 c57 -423 470 -718 1003 -718 449 0 790
197 891 514 70 222 20 449 -133 608 -131 135 -270 201 -670 317 -274 80 -350
108 -432 161 -82 53 -116 112 -116 200 0 118 70 199 208 242 58 18 95 22 192
22 129 0 205 -19 283 -68 81 -51 144 -146 160 -239 l8 -42 249 0 250 0 -3 50
c-2 28 -10 79 -19 115 -77 323 -326 535 -698 595 -97 16 -313 18 -410 4z"/>
<path d="M84204 79069 c-61 -14 -144 -68 -181 -117 -45 -59 -67 -139 -61 -223
22 -303 420 -403 584 -146 33 51 58 150 50 201 -19 122 -90 224 -185 265 -59
25 -149 34 -207 20z"/>
<path d="M18980 78323 c0 -408 4 -764 10 -825 49 -516 362 -843 862 -898 304
-34 617 69 796 264 l42 46 0 -140 0 -140 250 0 250 0 0 1205 0 1205 -250 0
-249 0 -3 -752 c-3 -741 -4 -754 -26 -831 -59 -210 -186 -343 -387 -403 -91
-28 -297 -26 -390 3 -195 61 -317 195 -378 412 -21 74 -21 96 -25 824 l-3 747
-250 0 -249 0 0 -717z"/>
<path d="M59900 78323 c0 -408 4 -764 10 -825 49 -516 362 -843 862 -898 304
-34 617 69 796 264 l42 46 0 -140 0 -140 250 0 250 0 0 1205 0 1205 -250 0
-249 0 -3 -752 c-3 -741 -4 -754 -26 -831 -59 -210 -186 -343 -387 -403 -91
-28 -297 -26 -390 3 -195 61 -317 195 -378 412 -21 74 -21 96 -25 824 l-3 747
-250 0 -249 0 0 -717z"/>
<path d="M80590 77835 l0 -1205 250 0 250 0 0 1205 0 1205 -250 0 -250 0 0
-1205z"/>
<path d="M84173 77221 c-139 -48 -221 -174 -211 -325 11 -166 131 -284 298
-294 136 -7 242 53 301 173 52 105 44 229 -21 326 -77 116 -231 167 -367 120z"/>
<path d="M102253 77221 c-139 -48 -221 -174 -211 -325 11 -166 131 -284 298
-294 136 -7 242 53 301 173 52 105 44 229 -21 326 -77 116 -231 167 -367 120z"/>
<path d="M40243 74736 c-88 -28 -157 -90 -196 -175 -15 -34 -21 -68 -21 -131
-1 -74 3 -92 27 -142 92 -188 342 -237 500 -97 181 159 113 476 -116 544 -61
18 -137 18 -194 1z"/>
<path d="M47773 74736 c-88 -28 -157 -90 -196 -175 -15 -34 -21 -68 -21 -131
-1 -74 3 -92 27 -142 92 -188 342 -237 500 -97 181 159 113 476 -116 544 -61
18 -137 18 -194 1z"/>
<path d="M22186 74604 c-94 -29 -176 -145 -176 -248 0 -180 182 -309 352 -250
184 62 237 296 98 435 -73 73 -168 95 -274 63z"/>
<path d="M22949 74606 c-96 -34 -159 -105 -179 -200 -13 -64 -1 -131 36 -193
86 -147 299 -164 417 -33 49 54 67 103 67 181 -1 172 -182 302 -341 245z"/>
<path d="M28770 73000 l0 -1620 250 0 249 0 4 758 c3 844 1 812 74 961 68 137
199 239 354 276 83 19 265 19 348 0 200 -47 341 -194 403 -420 22 -79 22 -93
26 -827 l3 -748 250 0 249 0 0 704 c0 392 -5 759 -10 829 -40 488 -304 808
-740 897 -90 19 -127 21 -255 17 -197 -7 -313 -37 -465 -118 -78 -43 -197
-133 -223 -172 -15 -20 -16 29 -16 531 l-1 552 -250 0 -250 0 0 -1620z"/>
<path d="M50400 73000 l0 -1620 250 0 249 0 4 758 c3 844 1 812 74 961 68 137
199 239 354 276 83 19 265 19 348 0 200 -47 341 -194 403 -420 22 -79 22 -93
26 -827 l3 -748 250 0 249 0 0 704 c0 392 -5 759 -10 829 -40 488 -304 808
-740 897 -90 19 -127 21 -255 17 -197 -7 -313 -37 -465 -118 -78 -43 -197
-133 -223 -172 -15 -20 -16 29 -16 531 l-1 552 -250 0 -250 0 0 -1620z"/>
<path d="M13570 72900 l0 -1520 573 0 c583 0 671 4 852 41 543 109 939 443
1098 924 70 210 98 458 79 688 -26 296 -106 540 -249 756 -73 110 -242 279
-354 353 -213 143 -477 235 -764 268 -51 5 -336 10 -662 10 l-573 0 0 -1520z
m1280 1086 c438 -94 699 -360 785 -798 23 -114 30 -359 16 -485 -60 -515 -365
-830 -871 -898 -71 -10 -203 -15 -407 -15 l-303 0 0 1111 0 1111 353 -5 c273
-3 369 -8 427 -21z"/>
<path d="M23730 74090 l0 -300 -140 0 -140 0 0 -205 0 -205 139 0 140 0 4
-737 c3 -721 4 -740 25 -822 44 -168 146 -304 274 -364 134 -63 177 -70 501
-74 l297 -5 0 210 0 211 -218 3 c-210 3 -219 4 -267 28 -38 20 -55 37 -75 75
l-25 49 -3 713 -3 713 296 0 295 0 0 205 0 205 -295 0 -295 0 0 300 0 300
-255 0 -255 0 0 -300z"/>
<path d="M41310 74090 l0 -300 -140 0 -140 0 0 -205 0 -205 139 0 140 0 4
-737 c3 -721 4 -740 25 -822 44 -168 146 -304 274 -364 134 -63 177 -70 501
-74 l297 -5 0 210 0 211 -218 3 c-210 3 -219 4 -267 28 -38 20 -55 37 -75 75
l-25 49 -3 713 -3 713 296 0 295 0 0 205 0 205 -295 0 -295 0 0 300 0 300
-255 0 -255 0 0 -300z"/>
<path d="M48840 74090 l0 -300 -140 0 -140 0 0 -205 0 -205 139 0 140 0 4
-737 c3 -721 4 -740 25 -822 44 -168 146 -304 274 -364 134 -63 177 -70 501
-74 l297 -5 0 210 0 211 -218 3 c-210 3 -219 4 -267 28 -38 20 -55 37 -75 75
l-25 49 -3 713 -3 713 296 0 295 0 0 205 0 205 -295 0 -295 0 0 300 0 300
-255 0 -255 0 0 -300z"/>
<path d="M17520 73816 c-380 -69 -658 -253 -840 -556 -260 -433 -227 -1074 76
-1470 57 -75 186 -198 259 -247 351 -236 865 -269 1264 -82 514 241 777 798
661 1399 -48 249 -152 452 -320 620 -152 153 -332 253 -558 312 -104 27 -137
30 -292 34 -118 2 -199 -1 -250 -10z m394 -446 c253 -65 432 -249 508 -525 18
-68 22 -106 22 -255 0 -202 -16 -278 -84 -415 -90 -182 -227 -301 -425 -367
-61 -20 -89 -23 -220 -23 -130 0 -159 3 -220 23 -107 36 -172 78 -260 166 -92
92 -150 195 -186 331 -31 114 -38 364 -14 490 32 174 113 326 227 429 68 62
193 128 283 150 92 22 276 20 369 -4z"/>
<path d="M20486 73815 c-195 -40 -343 -114 -468 -233 l-58 -55 0 131 0 132
-250 0 -250 0 0 -1205 0 -1205 250 0 249 0 4 758 c3 844 1 812 74 961 68 137
199 239 354 276 83 19 265 19 348 0 200 -47 341 -194 403 -420 22 -79 22 -93
26 -827 l3 -748 250 0 250 0 -4 793 c-4 753 -5 797 -25 887 -70 324 -225 537
-485 665 -141 70 -260 96 -447 101 -108 2 -176 -1 -224 -11z"/>
<path d="M27065 73819 c-282 -41 -512 -172 -637 -363 -139 -214 -118 -535 47
-724 127 -144 316 -232 743 -346 274 -74 390 -124 459 -199 47 -50 58 -89 51
-172 -11 -132 -133 -221 -341 -246 -181 -22 -347 24 -457 127 -54 50 -110 150
-110 196 l0 28 -263 0 -264 0 9 -62 c57 -423 470 -718 1003 -718 449 0 790
197 891 514 70 222 20 449 -133 608 -131 135 -270 201 -670 317 -274 80 -350
108 -432 161 -82 53 -116 112 -116 200 0 118 70 199 208 242 58 18 95 22 192
22 129 0 205 -19 283 -68 81 -51 144 -146 160 -239 l8 -42 249 0 250 0 -3 50
c-2 28 -10 79 -19 115 -77 323 -326 535 -698 595 -97 16 -313 18 -410 4z"/>
<path d="M32382 73815 c-232 -42 -426 -141 -587 -300 -164 -162 -277 -379
-331 -640 -28 -136 -26 -433 4 -571 53 -246 138 -422 287 -598 125 -147 339
-279 540 -333 91 -24 116 -27 280 -27 162 0 190 3 276 26 196 53 356 143 485
274 l74 75 0 -171 0 -170 255 0 255 0 0 1205 0 1205 -255 0 -255 0 0 -167 0
-167 -72 72 c-160 158 -334 247 -557 286 -112 19 -296 20 -399 1z m482 -445
c140 -36 284 -128 371 -238 57 -70 127 -213 152 -307 14 -56 18 -105 17 -245
0 -160 -3 -183 -27 -263 -68 -221 -190 -371 -379 -467 -111 -55 -203 -73 -346
-68 -195 8 -316 62 -463 209 -74 73 -94 100 -138 190 -74 149 -95 255 -88 454
6 174 19 229 84 365 39 81 59 107 137 185 101 100 187 152 311 185 98 26 266
26 369 0z"/>
<path d="M35580 73811 c-193 -41 -365 -151 -466 -297 l-39 -56 -3 166 -2 166
-250 0 -250 0 0 -1205 0 -1205 250 0 249 0 3 733 c4 713 4 734 25 808 57 202
154 308 333 364 37 11 105 19 208 22 l152 6 0 258 0 259 -62 -1 c-35 0 -101
-8 -148 -18z"/>
<path d="M37115 73824 c-208 -30 -385 -94 -535 -193 -81 -53 -221 -191 -280
-277 -90 -131 -151 -279 -192 -469 -32 -147 -32 -446 0 -592 61 -278 165 -470
352 -645 451 -425 1262 -410 1682 30 108 114 217 290 243 395 l7 27 -270 0
-270 0 -32 -57 c-69 -123 -200 -219 -351 -260 -87 -23 -280 -22 -368 1 -276
74 -449 274 -496 574 l-7 42 920 0 c861 0 920 1 926 17 4 10 10 76 13 148 29
638 -314 1111 -897 1240 -73 16 -376 29 -445 19z m344 -439 c77 -19 184 -70
252 -122 123 -93 219 -279 219 -423 l0 -40 -660 0 -660 0 0 23 c0 41 30 141
64 212 94 198 249 320 461 361 83 16 230 11 324 -11z"/>
<path d="M55152 73815 c-232 -42 -426 -141 -587 -300 -164 -162 -277 -379
-331 -640 -28 -136 -26 -433 4 -571 53 -246 138 -422 287 -598 125 -147 339
-279 540 -333 91 -24 116 -27 280 -27 162 0 190 3 276 26 196 53 356 143 485
274 l74 75 0 -171 0 -170 255 0 255 0 0 1205 0 1205 -255 0 -255 0 0 -167 0
-167 -72 72 c-160 158 -334 247 -557 286 -112 19 -296 20 -399 1z m482 -445
c140 -36 284 -128 371 -238 57 -70 127 -213 152 -307 14 -56 18 -105 17 -245
0 -160 -3 -183 -27 -263 -68 -221 -190 -371 -379 -467 -111 -55 -203 -73 -346
-68 -195 8 -316 62 -463 209 -74 73 -94 100 -138 190 -74 149 -95 255 -88 454
6 174 19 229 84 365 39 81 59 107 137 185 101 100 187 152 311 185 98 26 266
26 369 0z"/>
<path d="M58366 73815 c-195 -40 -343 -114 -468 -233 l-58 -55 0 131 0 132
-250 0 -250 0 0 -1205 0 -1205 250 0 249 0 4 758 c3 844 1 812 74 961 68 137
199 239 354 276 83 19 265 19 348 0 200 -47 341 -194 403 -420 22 -79 22 -93
26 -827 l3 -748 250 0 250 0 -4 793 c-4 753 -5 797 -25 887 -70 324 -225 537
-485 665 -141 70 -260 96 -447 101 -108 2 -176 -1 -224 -11z"/>
<path d="M63580 73816 c-380 -69 -658 -253 -840 -556 -260 -433 -227 -1074 76
-1470 57 -75 186 -198 259 -247 351 -236 865 -269 1264 -82 514 241 777 798
661 1399 -48 249 -152 452 -320 620 -152 153 -332 253 -558 312 -104 27 -137
30 -292 34 -118 2 -199 -1 -250 -10z m394 -446 c253 -65 432 -249 508 -525 18
-68 22 -106 22 -255 0 -202 -16 -278 -84 -415 -90 -182 -227 -301 -425 -367
-61 -20 -89 -23 -220 -23 -130 0 -159 3 -220 23 -107 36 -172 78 -260 166 -92
92 -150 195 -186 331 -31 114 -38 364 -14 490 32 174 113 326 227 429 68 62
193 128 283 150 92 22 276 20 369 -4z"/>
<path d="M66546 73815 c-195 -40 -343 -114 -468 -233 l-58 -55 0 131 0 132
-250 0 -250 0 0 -1205 0 -1205 250 0 249 0 4 758 c3 844 1 812 74 961 68 137
199 239 354 276 83 19 265 19 348 0 200 -47 341 -194 403 -420 22 -79 22 -93
26 -827 l3 -748 250 0 250 0 -4 793 c-4 753 -5 797 -25 887 -70 324 -225 537
-485 665 -141 70 -260 96 -447 101 -108 2 -176 -1 -224 -11z"/>
<path d="M69225 73824 c-208 -30 -385 -94 -535 -193 -81 -53 -221 -191 -280
-277 -90 -131 -151 -279 -192 -469 -32 -147 -32 -446 0 -592 61 -278 165 -470
352 -645 451 -425 1262 -410 1682 30 108 114 217 290 243 395 l7 27 -270 0
-270 0 -32 -57 c-69 -123 -200 -219 -351 -260 -87 -23 -280 -22 -368 1 -276
74 -449 274 -496 574 l-7 42 920 0 c861 0 920 1 926 17 4 10 10 76 13 148 29
638 -314 1111 -897 1240 -73 16 -376 29 -445 19z m344 -439 c77 -19 184 -70
252 -122 123 -93 219 -279 219 -423 l0 -40 -660 0 -660 0 0 23 c0 41 30 141
64 212 94 198 249 320 461 361 83 16 230 11 324 -11z"/>
<path d="M40090 72585 l0 -1205 250 0 250 0 0 1205 0 1205 -250 0 -250 0 0
-1205z"/>
<path d="M43804 73528 c45 -145 214 -687 376 -1206 l294 -942 266 2 265 3 239
878 c132 483 243 872 247 865 4 -7 107 -380 229 -828 122 -448 228 -839 236
-867 l15 -53 264 0 263 0 16 48 c8 26 169 542 356 1147 187 605 349 1126 360
1158 l19 57 -248 0 -247 0 -244 -942 c-133 -519 -246 -949 -249 -956 -4 -7
-114 409 -245 925 -130 516 -239 946 -242 956 -5 16 -26 17 -268 17 l-262 0
-248 -942 c-137 -519 -252 -952 -256 -962 -8 -23 20 -127 -273 1004 l-232 895
-257 3 -256 2 82 -262z"/>
<path d="M47620 72585 l0 -1205 250 0 250 0 0 1205 0 1205 -250 0 -250 0 0
-1205z"/>
<path d="M60366 72604 l475 -1186 -244 -581 c-134 -320 -242 -585 -240 -589 2
-5 118 -8 257 -8 l253 0 11 25 c6 13 333 795 726 1737 393 942 722 1730 731
1751 l15 37 -261 -2 -261 -3 -324 -845 c-178 -465 -336 -876 -350 -914 l-27
-68 -337 913 -337 914 -280 3 -281 2 474 -1186z"/>
<path d="M71153 71971 c-139 -48 -221 -174 -211 -325 11 -166 131 -284 298
-294 136 -7 242 53 301 173 52 105 44 229 -21 326 -77 116 -231 167 -367 120z"/>
<path d="M31675 57760 l-830 -429 -3 -366 c-2 -346 -1 -366 15 -361 10 3 387
174 838 380 l820 375 3 415 c1 229 -1 416 -5 416 -5 0 -381 -194 -838 -430z"/>
<path d="M98555 57760 l-830 -429 -3 -366 c-2 -346 -1 -366 15 -361 10 3 387
174 838 380 l820 375 3 415 c1 229 -1 416 -5 416 -5 0 -381 -194 -838 -430z"/>
<path d="M39675 57924 c-181 -40 -344 -162 -419 -314 -86 -175 -86 -359 -1
-539 46 -96 160 -212 255 -259 250 -123 556 -85 748 94 248 230 256 612 18
849 -117 116 -254 174 -431 181 -67 2 -123 -1 -170 -12z"/>
<path d="M75295 57924 c-333 -73 -539 -383 -470 -709 25 -117 75 -207 163
-294 122 -121 272 -181 452 -181 179 0 331 61 450 180 87 86 131 162 160 276
36 141 18 295 -52 427 -42 79 -155 193 -233 234 -141 73 -323 100 -470 67z"/>
<path d="M79695 57924 c-333 -73 -539 -383 -470 -709 25 -117 75 -207 163
-294 122 -121 272 -181 452 -181 179 0 331 61 450 180 87 86 131 162 160 276
36 141 18 295 -52 427 -42 79 -155 193 -233 234 -141 73 -323 100 -470 67z"/>
<path d="M95145 57924 c-333 -73 -539 -383 -470 -709 25 -117 75 -207 163
-294 122 -121 272 -181 452 -181 179 0 331 61 450 180 87 86 131 162 160 276
36 141 18 295 -52 427 -42 79 -155 193 -233 234 -141 73 -323 100 -470 67z"/>
<path d="M78360 57883 c-251 -15 -549 -87 -724 -175 -449 -224 -656 -632 -656
-1289 l0 -159 -230 0 -230 0 0 -420 0 -420 230 0 230 0 0 -1600 0 -1600 520 0
520 0 0 1600 0 1600 355 0 355 0 0 420 0 420 -356 0 -357 0 6 178 c6 198 20
273 69 364 75 142 209 206 451 215 l137 6 0 433 0 434 -132 -2 c-73 -1 -158
-3 -188 -5z"/>
<path d="M37340 56663 l0 -958 -27 35 c-89 115 -240 246 -381 331 -511 311
-1153 340 -1702 78 -290 -138 -555 -378 -734 -663 -148 -235 -254 -534 -302
-851 -26 -169 -26 -590 -1 -755 75 -488 255 -877 547 -1183 318 -335 725 -518
1203 -543 269 -14 578 45 814 156 191 89 415 270 532 428 l46 64 3 -291 2
-291 520 0 520 0 0 2700 0 2700 -520 0 -520 0 0 -957z m-854 -1259 c400 -71
717 -384 819 -807 92 -378 32 -792 -157 -1079 -299 -455 -909 -599 -1380 -326
-260 150 -444 412 -519 737 -26 111 -37 411 -20 532 66 467 344 806 756 924
161 46 320 52 501 19z"/>
<path d="M55280 56663 l0 -958 -27 35 c-89 115 -240 246 -381 331 -511 311
-1153 340 -1702 78 -290 -138 -555 -378 -734 -663 -148 -235 -254 -534 -302
-851 -26 -169 -26 -590 -1 -755 75 -488 255 -877 547 -1183 318 -335 725 -518
1203 -543 269 -14 578 45 814 156 191 89 415 270 532 428 l46 64 3 -291 2
-291 520 0 520 0 0 2700 0 2700 -520 0 -520 0 0 -957z m-854 -1259 c400 -71
717 -384 819 -807 92 -378 32 -792 -157 -1079 -299 -455 -909 -599 -1380 -326
-260 150 -444 412 -519 737 -26 111 -37 411 -20 532 66 467 344 806 756 924
161 46 320 52 501 19z"/>
<path d="M26435 57369 c-164 -13 -311 -38 -471 -79 -196 -50 -314 -94 -509
-190 -244 -120 -444 -261 -631 -447 -566 -559 -832 -1376 -728 -2241 103 -868
598 -1585 1354 -1962 663 -332 1536 -367 2231 -90 535 213 949 584 1207 1080
52 99 136 296 157 368 l6 22 -587 -2 -587 -3 -59 -99 c-199 -335 -477 -531
-862 -608 -92 -19 -144 -22 -306 -22 -281 0 -453 36 -666 138 -306 147 -526
368 -675 681 -123 256 -179 527 -179 857 0 332 58 612 179 862 200 414 551
689 1004 788 140 31 515 33 647 5 396 -86 667 -278 866 -616 l50 -86 588 -3
587 -2 -6 22 c-16 54 -101 260 -137 332 -103 204 -240 397 -408 570 -196 203
-382 337 -635 461 -182 89 -304 135 -483 181 -309 79 -640 108 -947 83z"/>
<path d="M31525 56323 c-318 -25 -599 -99 -843 -222 -615 -309 -990 -868
-1073 -1600 -18 -157 -7 -525 20 -676 162 -913 785 -1518 1700 -1652 143 -20
474 -23 611 -4 782 106 1380 546 1654 1217 234 572 213 1289 -54 1839 -241
498 -674 856 -1225 1014 -243 70 -557 103 -790 84z m332 -908 c424 -80 715
-382 813 -843 31 -141 38 -410 16 -560 -65 -440 -290 -748 -652 -893 -137 -55
-246 -72 -424 -66 -129 4 -170 9 -245 31 -270 80 -465 246 -590 501 -106 216
-140 400 -132 710 4 149 10 223 26 290 79 353 254 597 527 737 100 51 160 73
260 92 95 19 303 19 401 1z"/>
<path d="M42655 56319 c-331 -34 -641 -153 -894 -344 -108 -82 -280 -255 -358
-360 -224 -301 -363 -687 -404 -1120 -15 -158 -7 -478 16 -625 72 -475 256
-869 545 -1173 269 -283 602 -458 996 -523 156 -26 428 -24 586 4 405 73 728
263 990 582 l37 45 1 -330 c0 -354 -9 -502 -40 -632 -71 -299 -226 -501 -481
-623 -290 -138 -727 -130 -1034 19 -209 102 -349 248 -417 433 l-21 58 -502 0
c-276 0 -504 -2 -507 -5 -3 -3 0 -41 7 -84 89 -550 437 -984 975 -1214 197
-84 397 -138 635 -174 153 -22 631 -25 770 -5 506 75 887 267 1179 592 252
281 412 673 456 1119 6 66 10 852 10 2202 l0 2099 -515 0 -515 0 0 -282 0
-283 -37 45 c-307 372 -726 570 -1242 585 -80 2 -186 0 -236 -6z m651 -915
c400 -71 717 -384 819 -807 92 -378 32 -792 -157 -1079 -299 -455 -909 -599
-1380 -326 -260 150 -444 412 -519 737 -26 111 -37 411 -20 532 66 467 344
806 756 924 161 46 320 52 501 19z"/>
<path d="M47795 56323 c-318 -25 -599 -99 -843 -222 -615 -309 -990 -868
-1073 -1600 -18 -157 -7 -525 20 -676 162 -913 785 -1518 1700 -1652 143 -20
474 -23 611 -4 782 106 1380 546 1654 1217 234 572 213 1289 -54 1839 -241
498 -674 856 -1225 1014 -243 70 -557 103 -790 84z m332 -908 c424 -80 715
-382 813 -843 31 -141 38 -410 16 -560 -65 -440 -290 -748 -652 -893 -137 -55
-246 -72 -424 -66 -129 4 -170 9 -245 31 -270 80 -465 246 -590 501 -106 216
-140 400 -132 710 4 149 10 223 26 290 79 353 254 597 527 737 100 51 160 73
260 92 95 19 303 19 401 1z"/>
<path d="M58800 56320 c-391 -37 -737 -159 -1020 -358 -121 -85 -334 -298
-423 -422 -239 -337 -377 -808 -377 -1291 0 -861 382 -1538 1061 -1879 286
-145 600 -214 969 -214 352 0 629 58 915 193 210 99 370 216 542 395 175 182
315 409 397 645 l35 101 -552 0 -552 -1 -55 -90 c-65 -107 -182 -224 -280
-282 -197 -115 -508 -146 -760 -76 -366 101 -624 418 -675 832 l-7 57 1475 0
1475 0 5 23 c32 125 33 531 2 732 -136 887 -744 1489 -1637 1620 -133 19 -411
27 -538 15z m460 -869 c107 -27 286 -115 367 -181 171 -138 283 -351 308 -582
l7 -68 -957 0 -958 0 7 53 c4 28 23 100 43 159 112 338 350 555 694 633 98 22
378 14 489 -14z"/>
<path d="M69180 56320 c-391 -37 -737 -159 -1020 -358 -121 -85 -334 -298
-423 -422 -239 -337 -377 -808 -377 -1291 0 -861 382 -1538 1061 -1879 286
-145 600 -214 969 -214 352 0 629 58 915 193 210 99 370 216 542 395 175 182
315 409 397 645 l35 101 -552 0 -552 -1 -55 -90 c-65 -107 -182 -224 -280
-282 -197 -115 -508 -146 -760 -76 -366 101 -624 418 -675 832 l-7 57 1475 0
1475 0 5 23 c32 125 33 531 2 732 -136 887 -744 1489 -1637 1620 -133 19 -411
27 -538 15z m460 -869 c107 -27 286 -115 367 -181 171 -138 283 -351 308 -582
l7 -68 -957 0 -958 0 7 53 c4 28 23 100 43 159 112 338 350 555 694 633 98 22
378 14 489 -14z"/>
<path d="M82810 56319 c-364 -30 -716 -153 -990 -347 -115 -81 -290 -248 -376
-357 -213 -273 -350 -607 -410 -1000 -26 -167 -26 -578 -1 -749 23 -150 74
-353 122 -481 51 -138 152 -331 233 -445 87 -123 309 -346 432 -432 241 -170
540 -285 865 -334 145 -21 471 -24 615 -6 648 86 1134 403 1428 934 64 115
182 424 182 475 0 10 -107 13 -548 13 l-549 0 -28 -67 c-108 -255 -275 -401
-530 -464 -128 -32 -361 -32 -487 -1 -383 95 -623 405 -693 892 -19 138 -19
442 0 580 73 510 337 832 745 910 80 15 293 13 380 -4 271 -52 466 -210 580
-468 l34 -78 549 0 549 0 -7 38 c-4 20 -25 91 -47 157 -200 600 -645 1018
-1243 1169 -261 65 -535 88 -805 65z"/>
<path d="M86995 56319 c-324 -31 -640 -153 -894 -344 -108 -82 -280 -255 -358
-360 -178 -239 -315 -563 -372 -884 -59 -323 -53 -715 15 -1031 126 -588 453
-1058 925 -1327 354 -202 805 -269 1231 -183 360 74 705 278 908 539 l55 70 3
-289 2 -290 515 0 515 0 0 2020 0 2020 -515 0 -515 0 -2 -281 -3 -282 -65 78
c-327 392 -874 598 -1445 544z m651 -915 c400 -71 717 -384 819 -807 92 -378
32 -792 -157 -1079 -299 -455 -909 -599 -1380 -326 -260 150 -444 412 -519
737 -26 111 -37 411 -20 532 66 467 344 806 756 924 161 46 320 52 501 19z"/>
<path d="M92000 56319 c-364 -30 -716 -153 -990 -347 -115 -81 -290 -248 -376
-357 -213 -273 -350 -607 -410 -1000 -26 -167 -26 -578 -1 -749 23 -150 74
-353 122 -481 51 -138 152 -331 233 -445 87 -123 309 -346 432 -432 241 -170
540 -285 865 -334 145 -21 471 -24 615 -6 648 86 1134 403 1428 934 64 115
182 424 182 475 0 10 -107 13 -548 13 l-549 0 -28 -67 c-108 -255 -275 -401
-530 -464 -128 -32 -361 -32 -487 -1 -383 95 -623 405 -693 892 -19 138 -19
442 0 580 73 510 337 832 745 910 80 15 293 13 380 -4 271 -52 466 -210 580
-468 l34 -78 549 0 549 0 -7 38 c-4 20 -25 91 -47 157 -200 600 -645 1018
-1243 1169 -261 65 -535 88 -805 65z"/>
<path d="M98405 56323 c-318 -25 -599 -99 -843 -222 -615 -309 -990 -868
-1073 -1600 -18 -157 -7 -525 20 -676 162 -913 785 -1518 1700 -1652 143 -20
474 -23 611 -4 782 106 1380 546 1654 1217 234 572 213 1289 -54 1839 -241
498 -674 856 -1225 1014 -243 70 -557 103 -790 84z m332 -908 c424 -80 715
-382 813 -843 31 -141 38 -410 16 -560 -65 -440 -290 -748 -652 -893 -137 -55
-246 -72 -424 -66 -129 4 -170 9 -245 31 -270 80 -465 246 -590 501 -106 216
-140 400 -132 710 4 149 10 223 26 290 79 353 254 597 527 737 100 51 160 73
260 92 95 19 303 19 401 1z"/>
<path d="M74155 56313 c-446 -53 -808 -267 -1037 -611 l-38 -57 0 308 0 307
-515 0 -515 0 0 -2020 0 -2020 515 0 514 0 4 1138 3 1137 23 100 c67 296 212
481 451 575 127 50 219 63 495 69 l260 6 3 538 2 537 -67 -1 c-38 -1 -81 -4
-98 -6z"/>
<path d="M103320 56305 c-372 -51 -720 -230 -930 -478 l-50 -59 0 246 0 246
-515 0 -515 0 0 -2020 0 -2020 515 0 514 0 4 1233 3 1232 23 90 c96 364 307
577 646 651 108 23 351 24 453 1 347 -79 562 -310 649 -697 15 -67 17 -198 20
-1292 l4 -1218 514 0 515 0 0 1188 c0 1214 -5 1391 -40 1595 -105 612 -458
1046 -998 1227 -242 81 -556 110 -812 75z"/>
<path d="M39300 54240 l0 -2020 515 0 515 0 0 2020 0 2020 -515 0 -515 0 0
-2020z"/>
<path d="M62927 56188 c15 -40 350 -948 743 -2018 l717 -1945 623 0 624 0 738
1995 c406 1097 741 2005 744 2018 l6 22 -543 -2 -544 -3 -507 -1538 c-278
-846 -508 -1540 -510 -1542 -2 -2 -139 412 -306 919 -167 506 -396 1201 -509
1544 l-205 622 -549 0 -549 0 27 -72z"/>
<path d="M74920 54240 l0 -2020 515 0 515 0 0 2020 0 2020 -515 0 -515 0 0
-2020z"/>
<path d="M79320 54240 l0 -2020 515 0 515 0 0 2020 0 2020 -515 0 -515 0 0
-2020z"/>
<path d="M94770 54240 l0 -2020 515 0 515 0 0 2020 0 2020 -515 0 -515 0 0
-2020z"/>
<path d="M38728 46463 l-488 -287 0 -159 0 -159 58 32 c31 17 252 135 490 262
l432 232 0 183 c0 101 -1 183 -2 183 -2 -1 -222 -130 -490 -287z"/>
<path d="M52478 46463 l-488 -287 0 -159 0 -159 58 32 c31 17 252 135 490 262
l432 232 0 183 c0 101 -1 183 -2 183 -2 -1 -222 -130 -490 -287z"/>
<path d="M99208 46463 l-488 -287 0 -159 0 -159 58 32 c31 17 252 135 490 262
l432 232 0 183 c0 101 -1 183 -2 183 -2 -1 -222 -130 -490 -287z"/>
<path d="M36685 46600 c-71 -28 -119 -71 -152 -138 -74 -151 1 -344 155 -396
189 -65 377 71 375 270 -2 202 -193 335 -378 264z"/>
<path d="M57455 46600 c-71 -28 -119 -71 -152 -138 -74 -151 1 -344 155 -396
189 -65 377 71 375 270 -2 202 -193 335 -378 264z"/>
<path d="M87555 46600 c-71 -28 -119 -71 -152 -138 -74 -151 1 -344 155 -396
189 -65 377 71 375 270 -2 202 -193 335 -378 264z"/>
<path d="M97155 46600 c-71 -28 -119 -71 -152 -138 -74 -151 1 -344 155 -396
189 -65 377 71 375 270 -2 202 -193 335 -378 264z"/>
<path d="M56260 45864 l0 -657 -49 64 c-354 467 -1106 551 -1599 179 -307
-231 -473 -602 -473 -1055 0 -447 162 -818 462 -1059 200 -160 455 -246 728
-246 253 0 457 61 649 193 82 57 209 186 250 256 l27 46 3 -227 2 -228 215 0
215 0 0 1695 0 1695 -215 0 -215 0 0 -656z m-640 -570 c295 -74 526 -311 607
-622 51 -198 41 -464 -26 -653 -121 -343 -425 -559 -785 -559 -393 0 -703 242
-813 636 -26 93 -28 111 -28 299 0 232 14 305 90 460 120 249 338 411 613 455
79 12 263 4 342 -16z"/>
<path d="M67510 45864 l0 -657 -49 64 c-354 467 -1106 551 -1599 179 -307
-231 -473 -602 -473 -1055 0 -447 162 -818 462 -1059 200 -160 455 -246 728
-246 253 0 457 61 649 193 82 57 209 186 250 256 l27 46 3 -227 2 -228 215 0
215 0 0 1695 0 1695 -215 0 -215 0 0 -656z m-640 -570 c295 -74 526 -311 607
-622 51 -198 41 -464 -26 -653 -121 -343 -425 -559 -785 -559 -393 0 -703 242
-813 636 -26 93 -28 111 -28 299 0 232 14 305 90 460 120 249 338 411 613 455
79 12 263 4 342 -16z"/>
<path d="M22560 46360 c-554 -68 -890 -402 -890 -884 0 -345 140 -568 455
-722 128 -62 241 -101 527 -178 113 -31 246 -70 295 -87 212 -74 336 -166 400
-297 l38 -76 0 -136 0 -136 -39 -80 c-70 -141 -196 -238 -373 -286 -62 -16
-107 -20 -218 -20 -164 0 -253 19 -366 78 -139 73 -248 221 -279 377 l-14 67
-223 0 -223 0 0 -37 c1 -109 60 -290 131 -399 186 -284 535 -444 969 -444 303
0 544 74 735 225 206 163 319 380 332 640 16 324 -110 569 -374 728 -120 72
-269 127 -594 221 -402 116 -523 168 -627 273 -78 77 -114 160 -120 277 -5
109 8 184 50 266 75 151 232 247 443 271 235 26 451 -39 590 -179 56 -55 117
-164 135 -239 l11 -43 224 0 c129 0 226 4 230 9 10 17 -25 163 -59 247 -141
348 -491 556 -956 569 -74 2 -169 0 -210 -5z"/>
<path d="M78607 46273 c-4 -3 -7 -147 -7 -320 l0 -313 -160 0 -160 0 0 -170 0
-170 160 0 160 0 0 -767 c0 -483 4 -801 11 -858 29 -245 137 -406 325 -485
116 -48 214 -60 496 -60 l248 0 -2 178 -3 177 -231 5 -231 5 -58 30 c-75 39
-111 98 -125 206 -5 41 -10 403 -10 822 l0 747 330 0 330 0 0 170 0 170 -330
0 -330 0 0 320 0 320 -203 0 c-112 0 -207 -3 -210 -7z"/>
<path d="M85907 46273 c-4 -3 -7 -147 -7 -320 l0 -313 -160 0 -160 0 0 -170 0
-170 160 0 160 0 0 -767 c0 -483 4 -801 11 -858 29 -245 137 -406 325 -485
116 -48 214 -60 496 -60 l248 0 -2 178 -3 177 -231 5 -231 5 -58 30 c-75 39
-111 98 -125 206 -5 41 -10 403 -10 822 l0 747 330 0 330 0 0 170 0 170 -330
0 -330 0 0 320 0 320 -203 0 c-112 0 -207 -3 -210 -7z"/>
<path d="M25340 45679 c-228 -18 -477 -109 -647 -238 -327 -247 -500 -684
-463 -1170 32 -417 207 -753 500 -960 145 -102 329 -176 510 -206 108 -17 330
-20 435 -5 172 25 343 86 483 172 98 61 248 203 309 293 68 101 153 285 153
332 0 10 -42 13 -220 13 l-219 0 -43 -86 c-91 -185 -260 -314 -470 -360 -109
-24 -311 -21 -413 5 -205 53 -379 180 -478 349 -65 110 -117 279 -117 377 l0
35 1000 0 1000 0 7 28 c4 15 7 108 7 207 -1 146 -5 199 -23 282 -132 624 -639
984 -1311 932z m340 -379 c321 -77 532 -323 557 -647 l6 -83 -792 0 -792 0 7
53 c11 86 52 216 95 297 114 219 313 360 564 400 85 13 256 3 355 -20z"/>
<path d="M29320 45679 c-228 -18 -477 -109 -647 -238 -327 -247 -500 -684
-463 -1170 32 -417 207 -753 500 -960 145 -102 329 -176 510 -206 108 -17 330
-20 435 -5 172 25 343 86 483 172 98 61 248 203 309 293 68 101 153 285 153
332 0 10 -42 13 -220 13 l-219 0 -43 -86 c-91 -185 -260 -314 -470 -360 -109
-24 -311 -21 -413 5 -205 53 -379 180 -478 349 -65 110 -117 279 -117 377 l0
35 1000 0 1000 0 7 28 c4 15 7 108 7 207 -1 146 -5 199 -23 282 -132 624 -639
984 -1311 932z m340 -379 c321 -77 532 -323 557 -647 l6 -83 -792 0 -792 0 7
53 c11 86 52 216 95 297 114 219 313 360 564 400 85 13 256 3 355 -20z"/>
<path d="M32215 45679 c-236 -34 -468 -159 -593 -321 l-47 -60 -3 171 -2 171
-210 0 -210 0 0 -1255 0 -1255 210 0 210 0 0 723 c0 864 5 924 90 1102 116
241 328 365 626 365 216 0 376 -59 499 -184 85 -86 136 -179 173 -314 l26 -97
4 -797 3 -798 210 0 210 0 -4 823 c-4 910 -3 899 -71 1099 -45 133 -107 236
-201 336 -117 125 -229 194 -395 246 -158 50 -366 68 -525 45z"/>
<path d="M38650 45680 c-523 -45 -924 -352 -1084 -831 -95 -286 -93 -647 6
-944 144 -432 499 -728 958 -801 137 -22 396 -15 520 14 457 107 782 398 918
822 53 165 66 256 66 450 0 188 -13 281 -60 438 -115 383 -412 680 -796 796
-159 48 -364 70 -528 56z m331 -389 c411 -106 656 -485 624 -968 -30 -464
-274 -765 -686 -849 -111 -22 -302 -15 -409 16 -311 90 -518 344 -570 701 -18
125 -8 389 19 499 27 106 93 246 156 329 113 149 305 258 510 291 87 13 268 4
356 -19z"/>
<path d="M45665 45679 c-236 -34 -468 -159 -593 -321 l-47 -60 -3 171 -2 171
-210 0 -210 0 0 -1255 0 -1255 210 0 210 0 0 723 c0 864 5 924 90 1102 116
241 328 365 626 365 216 0 376 -59 499 -184 85 -86 136 -179 173 -314 l26 -97
4 -797 3 -798 210 0 210 0 -4 823 c-4 910 -3 899 -71 1099 -45 133 -107 236
-201 336 -117 125 -229 194 -395 246 -158 50 -366 68 -525 45z"/>
<path d="M49622 45680 c-155 -13 -341 -64 -467 -128 -200 -101 -389 -291 -492
-497 -159 -314 -192 -761 -83 -1125 95 -318 301 -571 576 -709 179 -90 365
-131 589 -131 479 0 853 206 1053 580 36 66 102 236 102 261 0 5 -94 9 -223 9
l-224 0 -27 -70 c-97 -245 -293 -387 -581 -420 -359 -40 -656 121 -801 435
-64 138 -85 245 -91 450 -5 183 2 265 34 394 75 303 289 519 578 582 95 21
304 16 399 -10 224 -60 393 -209 468 -413 l21 -58 223 0 c157 0 224 3 224 11
0 23 -61 191 -91 251 -76 152 -209 304 -348 398 -212 142 -531 215 -839 190z"/>
<path d="M52400 45680 c-523 -45 -924 -352 -1084 -831 -95 -286 -93 -647 6
-944 144 -432 499 -728 958 -801 137 -22 396 -15 520 14 457 107 782 398 918
822 53 165 66 256 66 450 0 188 -13 281 -60 438 -115 383 -412 680 -796 796
-159 48 -364 70 -528 56z m331 -389 c411 -106 656 -485 624 -968 -30 -464
-274 -765 -686 -849 -111 -22 -302 -15 -409 16 -311 90 -518 344 -570 701 -18
125 -8 389 19 499 27 106 93 246 156 329 113 149 305 258 510 291 87 13 268 4
356 -19z"/>
<path d="M59340 45679 c-273 -25 -524 -140 -711 -328 -241 -242 -360 -559
-360 -956 0 -680 381 -1179 986 -1291 122 -22 364 -15 483 15 269 68 470 208
634 441 17 24 18 11 15 -320 -3 -317 -5 -352 -25 -425 -60 -219 -185 -381
-362 -468 -147 -72 -195 -82 -400 -81 -205 1 -279 16 -425 88 -150 75 -254
176 -319 311 -18 38 -36 78 -39 88 -6 15 -25 17 -212 17 -194 0 -205 -1 -205
-19 0 -31 48 -188 79 -255 177 -390 645 -626 1196 -603 337 14 591 115 802
320 163 159 258 333 315 585 l22 97 3 1373 4 1372 -216 0 -215 0 0 -222 0
-222 -31 49 c-39 62 -137 164 -212 222 -205 158 -510 239 -807 212z m410 -385
c295 -74 526 -311 607 -622 51 -198 41 -464 -26 -653 -121 -343 -425 -559
-785 -559 -393 0 -703 242 -813 636 -26 93 -28 111 -28 299 0 232 14 305 90
460 120 249 338 411 613 455 79 12 263 4 342 -16z"/>
<path d="M62480 45680 c-523 -45 -924 -352 -1084 -831 -95 -286 -93 -647 6
-944 144 -432 499 -728 958 -801 137 -22 396 -15 520 14 457 107 782 398 918
822 53 165 66 256 66 450 0 188 -13 281 -60 438 -115 383 -412 680 -796 796
-159 48 -364 70 -528 56z m331 -389 c411 -106 656 -485 624 -968 -30 -464
-274 -765 -686 -849 -111 -22 -302 -15 -409 16 -311 90 -518 344 -570 701 -18
125 -8 389 19 499 27 106 93 246 156 329 113 149 305 258 510 291 87 13 268 4
356 -19z"/>
<path d="M69550 45679 c-228 -18 -477 -109 -647 -238 -327 -247 -500 -684
-463 -1170 32 -417 207 -753 500 -960 145 -102 329 -176 510 -206 108 -17 330
-20 435 -5 172 25 343 86 483 172 98 61 248 203 309 293 68 101 153 285 153
332 0 10 -42 13 -220 13 l-219 0 -43 -86 c-91 -185 -260 -314 -470 -360 -109
-24 -311 -21 -413 5 -205 53 -379 180 -478 349 -65 110 -117 279 -117 377 l0
35 1000 0 1000 0 7 28 c4 15 7 108 7 207 -1 146 -5 199 -23 282 -132 624 -639
984 -1311 932z m340 -379 c321 -77 532 -323 557 -647 l6 -83 -792 0 -792 0 7
53 c11 86 52 216 95 297 114 219 313 360 564 400 85 13 256 3 355 -20z"/>
<path d="M73490 45679 c-273 -24 -524 -140 -711 -328 -239 -240 -360 -558
-361 -951 0 -186 20 -320 69 -475 142 -446 477 -745 918 -822 133 -23 368 -14
496 20 251 66 458 203 590 391 l49 69 0 -226 0 -227 215 0 215 0 0 1255 0
1255 -215 0 -215 0 0 -222 0 -221 -49 69 c-128 183 -343 323 -591 385 -61 15
-290 43 -310 38 -3 -1 -48 -6 -100 -10z m410 -385 c295 -74 526 -311 607 -622
51 -198 41 -464 -26 -653 -121 -343 -425 -559 -785 -559 -393 0 -703 242 -813
636 -26 93 -28 111 -28 299 0 232 14 305 90 460 120 249 338 411 613 455 79
12 263 4 342 -16z"/>
<path d="M81090 45679 c-228 -18 -477 -109 -647 -238 -327 -247 -500 -684
-463 -1170 32 -417 207 -753 500 -960 145 -102 329 -176 510 -206 108 -17 330
-20 435 -5 172 25 343 86 483 172 98 61 248 203 309 293 68 101 153 285 153
332 0 10 -42 13 -220 13 l-219 0 -43 -86 c-91 -185 -260 -314 -470 -360 -109
-24 -311 -21 -413 5 -205 53 -379 180 -478 349 -65 110 -117 279 -117 377 l0
35 1000 0 1000 0 7 28 c4 15 7 108 7 207 -1 146 -5 199 -23 282 -132 624 -639
984 -1311 932z m340 -379 c321 -77 532 -323 557 -647 l6 -83 -792 0 -792 0 7
53 c11 86 52 216 95 297 114 219 313 360 564 400 85 13 256 3 355 -20z"/>
<path d="M83995 45679 c-236 -34 -468 -159 -593 -321 l-47 -60 -3 171 -2 171
-210 0 -210 0 0 -1255 0 -1255 210 0 210 0 0 723 c0 864 5 924 90 1102 116
241 328 365 626 365 216 0 376 -59 499 -184 85 -86 136 -179 173 -314 l26 -97
4 -797 3 -798 210 0 210 0 -4 823 c-4 910 -3 899 -71 1099 -45 133 -107 236
-201 336 -117 125 -229 194 -395 246 -158 50 -366 68 -525 45z"/>
<path d="M89472 45680 c-155 -13 -341 -64 -467 -128 -200 -101 -389 -291 -492
-497 -159 -314 -192 -761 -83 -1125 95 -318 301 -571 576 -709 179 -90 365
-131 589 -131 479 0 853 206 1053 580 36 66 102 236 102 261 0 5 -94 9 -223 9
l-224 0 -27 -70 c-97 -245 -293 -387 -581 -420 -359 -40 -656 121 -801 435
-64 138 -85 245 -91 450 -5 183 2 265 34 394 75 303 289 519 578 582 95 21
304 16 399 -10 224 -60 393 -209 468 -413 l21 -58 223 0 c157 0 224 3 224 11
0 23 -61 191 -91 251 -76 152 -209 304 -348 398 -212 142 -531 215 -839 190z"/>
<path d="M92170 45679 c-273 -24 -524 -140 -711 -328 -239 -240 -360 -558
-361 -951 0 -186 20 -320 69 -475 142 -446 477 -745 918 -822 133 -23 368 -14
496 20 251 66 458 203 590 391 l49 69 0 -226 0 -227 215 0 215 0 0 1255 0
1255 -215 0 -215 0 0 -222 0 -221 -49 69 c-128 183 -343 323 -591 385 -61 15
-290 43 -310 38 -3 -1 -48 -6 -100 -10z m410 -385 c295 -74 526 -311 607 -622
51 -198 41 -464 -26 -653 -121 -343 -425 -559 -785 -559 -393 0 -703 242 -813
636 -26 93 -28 111 -28 299 0 232 14 305 90 460 120 249 338 411 613 455 79
12 263 4 342 -16z"/>
<path d="M95262 45680 c-155 -13 -341 -64 -467 -128 -200 -101 -389 -291 -492
-497 -159 -314 -192 -761 -83 -1125 95 -318 301 -571 576 -709 179 -90 365
-131 589 -131 479 0 853 206 1053 580 36 66 102 236 102 261 0 5 -94 9 -223 9
l-224 0 -27 -70 c-97 -245 -293 -387 -581 -420 -359 -40 -656 121 -801 435
-64 138 -85 245 -91 450 -5 183 2 265 34 394 75 303 289 519 578 582 95 21
304 16 399 -10 224 -60 393 -209 468 -413 l21 -58 223 0 c157 0 224 3 224 11
0 23 -61 191 -91 251 -76 152 -209 304 -348 398 -212 142 -531 215 -839 190z"/>
<path d="M99130 45680 c-523 -45 -924 -352 -1084 -831 -95 -286 -93 -647 6
-944 144 -432 499 -728 958 -801 137 -22 396 -15 520 14 457 107 782 398 918
822 53 165 66 256 66 450 0 188 -13 281 -60 438 -115 383 -412 680 -796 796
-159 48 -364 70 -528 56z m331 -389 c411 -106 656 -485 624 -968 -30 -464
-274 -765 -686 -849 -111 -22 -302 -15 -409 16 -311 90 -518 344 -570 701 -18
125 -8 389 19 499 27 106 93 246 156 329 113 149 305 258 510 291 87 13 268 4
356 -19z"/>
<path d="M102075 45679 c-236 -34 -468 -159 -593 -321 l-47 -60 -3 171 -2 171
-210 0 -210 0 0 -1255 0 -1255 210 0 210 0 0 723 c0 864 5 924 90 1102 116
241 328 365 626 365 216 0 376 -59 499 -184 85 -86 136 -179 173 -314 l26 -97
4 -797 3 -798 210 0 210 0 -4 823 c-4 910 -3 899 -71 1099 -45 133 -107 236
-201 336 -117 125 -229 194 -395 246 -158 50 -366 68 -525 45z"/>
<path d="M106000 45679 c-273 -24 -524 -140 -711 -328 -239 -240 -360 -558
-361 -951 0 -186 20 -320 69 -475 142 -446 477 -745 918 -822 133 -23 368 -14
496 20 251 66 458 203 590 391 l49 69 0 -226 0 -227 215 0 215 0 0 1255 0
1255 -215 0 -215 0 0 -222 0 -221 -49 69 c-128 183 -343 323 -591 385 -61 15
-290 43 -310 38 -3 -1 -48 -6 -100 -10z m410 -385 c295 -74 526 -311 607 -622
51 -198 41 -464 -26 -653 -121 -343 -425 -559 -785 -559 -393 0 -703 242 -813
636 -26 93 -28 111 -28 299 0 232 14 305 90 460 120 249 338 411 613 455 79
12 263 4 342 -16z"/>
<path d="M33750 45632 c0 -5 220 -568 488 -1253 l489 -1244 245 -3 246 -2 42
107 c24 60 244 623 491 1252 247 629 449 1145 449 1147 0 2 -100 4 -223 4
l-222 0 -384 -1047 c-211 -577 -386 -1051 -390 -1056 -4 -4 -182 468 -396
1048 l-388 1055 -224 0 c-123 0 -223 -4 -223 -8z"/>
<path d="M36570 44385 l0 -1255 210 0 210 0 0 1255 0 1255 -210 0 -210 0 0
-1255z"/>
<path d="M41690 44843 c0 -888 1 -910 65 -1101 43 -128 86 -207 165 -305 153
-189 379 -305 661 -338 349 -40 698 86 886 321 l48 59 3 -174 2 -175 210 0
210 0 0 1255 0 1255 -210 0 -209 0 -4 -787 c-3 -778 -3 -789 -25 -873 -66
-248 -213 -412 -437 -487 -74 -25 -93 -27 -250 -27 -159 0 -175 1 -252 27 -97
33 -216 108 -273 175 -53 62 -114 180 -140 272 -33 119 -39 281 -40 1013 l0
687 -205 0 -205 0 0 -797z"/>
<path d="M57340 44385 l0 -1255 210 0 210 0 0 1255 0 1255 -210 0 -210 0 0
-1255z"/>
<path d="M75600 44843 c0 -888 1 -910 65 -1101 43 -128 86 -207 165 -305 153
-189 379 -305 661 -338 349 -40 698 86 886 321 l48 59 3 -174 2 -175 210 0
210 0 0 1255 0 1255 -210 0 -209 0 -4 -787 c-3 -778 -3 -789 -25 -873 -66
-248 -213 -412 -437 -487 -74 -25 -93 -27 -250 -27 -159 0 -175 1 -252 27 -97
33 -216 108 -273 175 -53 62 -114 180 -140 272 -33 119 -39 281 -40 1013 l0
687 -205 0 -205 0 0 -797z"/>
<path d="M87440 44385 l0 -1255 210 0 210 0 0 1255 0 1255 -210 0 -210 0 0
-1255z"/>
<path d="M97040 44385 l0 -1255 210 0 210 0 0 1255 0 1255 -210 0 -210 0 0
-1255z"/>
<path d="M58330 39995 c-8 -2 -49 -9 -90 -15 -225 -36 -445 -144 -591 -289
-146 -146 -247 -360 -265 -562 l-7 -69 214 0 214 0 13 68 c34 178 160 342 324
420 116 56 205 74 363 73 330 -1 543 -140 610 -398 18 -68 20 -220 4 -295 -35
-164 -160 -297 -347 -365 -128 -47 -234 -64 -444 -70 l-198 -6 0 -181 0 -182
213 -12 c127 -7 248 -20 303 -31 376 -81 555 -287 554 -639 -1 -302 -164 -522
-445 -598 -35 -9 -118 -18 -200 -21 -115 -4 -157 -1 -238 15 -165 34 -305 116
-405 235 -62 75 -129 216 -150 315 l-17 82 -212 0 -213 0 6 -47 c56 -451 305
-767 713 -903 297 -100 660 -101 947 -5 311 104 522 324 604 630 28 103 38
309 20 426 -43 299 -194 519 -440 643 -47 23 -115 51 -152 62 -38 10 -68 24
-68 31 0 6 26 19 58 28 249 72 450 283 524 551 32 116 32 335 0 454 -88 329
-335 548 -719 636 -62 14 -440 29 -483 19z"/>
<path d="M61110 39994 c-245 -31 -434 -106 -593 -233 -218 -176 -360 -474
-384 -801 l-6 -90 211 0 211 0 6 48 c24 197 68 330 145 439 81 117 183 189
330 235 65 20 95 23 225 23 168 -1 238 -15 340 -68 84 -44 174 -137 213 -218
58 -120 67 -174 66 -374 0 -166 -2 -187 -27 -270 -34 -111 -116 -280 -194
-400 -218 -334 -614 -717 -1366 -1323 l-177 -143 0 -154 0 -155 1155 0 1155 0
0 185 0 185 -815 2 -816 3 123 100 c680 552 1051 956 1249 1360 163 334 201
655 113 963 -121 427 -474 673 -984 686 -80 3 -161 2 -180 0z"/>
<path d="M70990 39995 c-8 -2 -49 -9 -90 -15 -225 -36 -445 -144 -591 -289
-146 -146 -247 -360 -265 -562 l-7 -69 214 0 214 0 13 68 c34 178 160 342 324
420 116 56 205 74 363 73 330 -1 543 -140 610 -398 18 -68 20 -220 4 -295 -35
-164 -160 -297 -347 -365 -128 -47 -234 -64 -444 -70 l-198 -6 0 -181 0 -182
213 -12 c127 -7 248 -20 303 -31 376 -81 555 -287 554 -639 -1 -302 -164 -522
-445 -598 -35 -9 -118 -18 -200 -21 -115 -4 -157 -1 -238 15 -165 34 -305 116
-405 235 -62 75 -129 216 -150 315 l-17 82 -212 0 -213 0 6 -47 c56 -451 305
-767 713 -903 297 -100 660 -101 947 -5 311 104 522 324 604 630 28 103 38
309 20 426 -43 299 -194 519 -440 643 -47 23 -115 51 -152 62 -38 10 -68 24
-68 31 0 6 26 19 58 28 249 72 450 283 524 551 32 116 32 335 0 454 -88 329
-335 548 -719 636 -62 14 -440 29 -483 19z"/>
<path d="M77820 39994 c-245 -31 -434 -106 -593 -233 -218 -176 -360 -474
-384 -801 l-6 -90 211 0 211 0 6 48 c24 197 68 330 145 439 81 117 183 189
330 235 65 20 95 23 225 23 168 -1 238 -15 340 -68 84 -44 174 -137 213 -218
58 -120 67 -174 66 -374 0 -166 -2 -187 -27 -270 -34 -111 -116 -280 -194
-400 -218 -334 -614 -717 -1366 -1323 l-177 -143 0 -154 0 -155 1155 0 1155 0
0 185 0 185 -815 2 -816 3 123 100 c680 552 1051 956 1249 1360 163 334 201
655 113 963 -121 427 -474 673 -984 686 -80 3 -161 2 -180 0z"/>
<path d="M80530 39995 c-8 -2 -49 -9 -90 -15 -225 -36 -445 -144 -591 -289
-146 -146 -247 -360 -265 -562 l-7 -69 214 0 214 0 13 68 c34 178 160 342 324
420 116 56 205 74 363 73 330 -1 543 -140 610 -398 18 -68 20 -220 4 -295 -35
-164 -160 -297 -347 -365 -128 -47 -234 -64 -444 -70 l-198 -6 0 -181 0 -182
213 -12 c127 -7 248 -20 303 -31 376 -81 555 -287 554 -639 -1 -302 -164 -522
-445 -598 -35 -9 -118 -18 -200 -21 -115 -4 -157 -1 -238 15 -165 34 -305 116
-405 235 -62 75 -129 216 -150 315 l-17 82 -212 0 -213 0 6 -47 c56 -451 305
-767 713 -903 297 -100 660 -101 947 -5 311 104 522 324 604 630 28 103 38
309 20 426 -43 299 -194 519 -440 643 -47 23 -115 51 -152 62 -38 10 -68 24
-68 31 0 6 26 19 58 28 249 72 450 283 524 551 32 116 32 335 0 454 -88 329
-335 548 -719 636 -62 14 -440 29 -483 19z"/>
<path d="M68125 39983 c-332 -30 -621 -165 -784 -365 -65 -78 -134 -218 -163
-323 -30 -115 -30 -345 0 -460 63 -232 206 -404 433 -519 l86 -43 -76 -31
c-115 -47 -196 -99 -282 -180 -185 -174 -269 -380 -269 -659 0 -290 94 -520
287 -704 93 -89 163 -136 286 -194 382 -181 955 -176 1327 12 114 58 187 110
271 193 123 122 191 237 245 415 26 84 28 102 28 275 0 173 -2 191 -28 275
-86 283 -283 483 -581 589 -16 6 -5 15 60 49 299 156 465 424 465 751 0 502
-364 852 -952 916 -92 9 -264 11 -353 3z m410 -387 c108 -24 242 -95 313 -165
67 -68 123 -172 143 -266 15 -75 15 -224 0 -290 -37 -154 -159 -300 -311 -373
-121 -57 -193 -73 -355 -79 -115 -4 -157 -1 -238 15 -253 53 -435 211 -492
428 -21 83 -19 224 5 318 27 105 63 169 140 247 96 97 203 145 410 183 51 9
317 -3 385 -18z m15 -1546 c206 -42 382 -163 462 -316 54 -103 71 -179 71
-314 0 -200 -52 -330 -184 -462 -62 -61 -95 -85 -170 -122 -145 -70 -241 -90
-439 -90 -177 0 -250 12 -375 59 -158 59 -282 166 -354 304 -51 99 -71 185
-71 316 0 190 49 314 170 435 114 115 271 185 470 210 107 13 309 4 420 -20z"/>
<path d="M50750 38960 l0 -980 209 0 209 0 11 31 c19 55 100 165 166 227 161
151 390 220 645 193 247 -26 419 -119 525 -285 149 -233 165 -645 35 -921 -89
-192 -232 -311 -439 -367 -113 -30 -342 -30 -464 0 -161 40 -303 126 -392 240
-52 65 -118 194 -136 265 l-11 47 -215 0 -215 0 7 -42 c14 -86 57 -215 100
-305 189 -389 576 -603 1093 -603 555 0 945 258 1108 734 64 185 88 453 60
662 -81 609 -470 954 -1081 957 -148 0 -243 -13 -366 -54 -166 -53 -304 -136
-396 -237 l-43 -46 0 537 0 537 838 2 837 3 3 193 2 192 -1045 0 -1045 0 0
-980z"/>
<path d="M62750 39735 l0 -205 230 0 230 0 0 -1530 0 -1530 225 0 225 0 -2
1733 -3 1732 -452 3 -453 2 0 -205z"/>
<path d="M65470 39735 l0 -205 230 0 230 0 0 -1530 0 -1530 225 0 225 0 -2
1733 -3 1732 -452 3 -453 2 0 -205z"/>
<path d="M75270 39735 l0 -205 230 0 230 0 0 -1530 0 -1530 225 0 225 0 -2
1733 -3 1732 -452 3 -453 2 0 -205z"/>
<path d="M53450 39740 l0 -190 920 0 c506 0 920 -3 920 -6 0 -3 -301 -693
-670 -1533 -368 -841 -670 -1531 -670 -1535 0 -3 99 -5 221 -4 l221 3 664
1558 664 1558 0 169 0 170 -1135 0 -1135 0 0 -190z"/>
<path d="M72690 39740 l0 -190 920 0 c506 0 920 -3 920 -6 0 -3 -301 -693
-670 -1533 -368 -841 -670 -1531 -670 -1535 0 -3 99 -5 221 -4 l221 3 664
1558 664 1558 0 169 0 170 -1135 0 -1135 0 0 -190z"/>
<path d="M48540 38930 l0 -520 -507 -2 -508 -3 0 -185 0 -185 508 -3 507 -2 0
-515 0 -515 205 0 205 0 0 515 0 515 510 0 510 0 0 190 0 190 -510 0 -510 0 0
520 0 520 -205 0 -205 0 0 -520z"/>
<path d="M17713 30514 c-548 -80 -1036 -391 -1347 -858 -141 -213 -229 -433
-294 -736 -15 -68 -16 -625 -19 -6260 -3 -5482 -2 -6197 12 -6295 108 -788
676 -1428 1441 -1625 251 -65 -214 -61 5984 -58 5444 3 5638 4 5730 22 412 80
746 254 1031 536 249 246 402 499 502 830 19 63 43 162 54 220 17 101 18 319
18 6330 l0 6225 -27 125 c-83 381 -244 689 -502 957 -123 128 -219 209 -351
295 -167 110 -403 211 -601 259 -218 52 148 49 -5914 48 -4649 -1 -5641 -3
-5717 -15z m11521 -162 c358 -83 640 -229 890 -463 129 -120 283 -326 366
-488 82 -161 158 -411 180 -591 8 -71 10 -1668 8 -6265 l-3 -6170 -23 -99
c-30 -128 -75 -270 -120 -371 -250 -571 -782 -973 -1401 -1059 -100 -14 -704
-16 -5694 -16 -6079 0 -5656 -4 -5889 55 -337 86 -669 288 -896 547 -209 237
-360 543 -424 860 l-23 113 0 6205 0 6205 27 126 c121 556 465 1005 963 1253
174 86 387 153 565 175 36 5 2610 8 5720 7 l5655 -1 99 -23z"/>
<path d="M34230 30515 c-204 -29 -402 -90 -585 -180 -517 -254 -903 -735
-1036 -1291 -52 -218 -49 190 -49 -6438 0 -6716 -4 -6220 55 -6456 173 -690
712 -1233 1400 -1410 251 -65 -208 -60 5935 -60 6143 0 5684 -5 5935 60 679
175 1223 718 1396 1393 11 45 28 116 37 157 15 68 16 625 19 6250 3 4381 1
6203 -7 6270 -100 879 -783 1580 -1661 1705 -91 13 -823 15 -5729 14 -4427 -1
-5643 -4 -5710 -14z m11515 -163 c571 -131 1011 -469 1259 -967 90 -182 142
-348 171 -550 14 -100 15 -698 13 -6280 l-3 -6170 -27 -121 c-108 -480 -378
-876 -773 -1137 -167 -110 -359 -196 -543 -242 -232 -59 189 -55 -5889 -55
-4990 0 -5594 2 -5694 16 -473 66 -900 316 -1191 699 -185 244 -312 560 -348
865 -8 69 -10 1768 -8 6260 l3 6165 23 99 c13 54 37 142 54 195 192 599 667
1045 1280 1202 197 50 -140 47 5913 45 l5660 -1 100 -23z"/>
<path d="M50733 30514 c-405 -59 -766 -235 -1060 -518 -302 -290 -481 -612
-570 -1023 l-28 -128 0 -6240 0 -6240 27 -125 c83 -382 246 -690 508 -963 310
-324 704 -524 1148 -582 99 -13 805 -15 5700 -15 3833 0 5614 3 5672 10 807
100 1460 669 1660 1445 65 251 60 -262 60 6473 0 6592 3 6207 -50 6428 -82
352 -258 664 -519 925 -311 311 -669 490 -1102 553 -95 14 -696 16 -5730 15
-4644 -1 -5640 -3 -5716 -15z m11521 -162 c287 -66 512 -168 728 -329 354
-263 599 -656 690 -1105 l23 -113 0 -6200 0 -6200 -23 -113 c-97 -477 -369
-889 -761 -1153 -244 -165 -518 -266 -801 -298 -80 -9 -1444 -11 -5715 -9
l-5610 3 -109 23 c-570 121 -1027 471 -1276 977 -58 119 -120 299 -152 445
l-23 105 0 6215 0 6215 23 114 c140 690 651 1227 1334 1402 197 50 -140 47
5913 45 l5660 -1 99 -23z"/>
<path d="M67243 30514 c-425 -62 -803 -254 -1105 -560 -117 -119 -166 -180
-248 -304 -153 -233 -249 -485 -297 -786 -17 -103 -18 -431 -18 -6254 0 -5858
1 -6150 18 -6260 70 -449 258 -816 578 -1125 256 -247 546 -408 884 -491 238
-58 -170 -54 5913 -54 3833 0 5614 3 5672 10 447 56 838 246 1151 559 310 312
497 690 554 1126 13 103 15 815 15 6228 0 4118 -4 6141 -10 6202 -52 450 -259
871 -582 1181 -303 291 -663 467 -1079 528 -96 14 -680 16 -5730 15 -4644 -1
-5640 -3 -5716 -15z m11424 -149 c379 -54 740 -234 1012 -503 289 -287 478
-678 520 -1077 9 -83 11 -1627 9 -6250 -4 -5666 -5 -6146 -21 -6218 -61 -288
-156 -515 -304 -725 -297 -419 -768 -699 -1268 -752 -82 -8 -1521 -10 -5715
-8 l-5605 3 -109 23 c-815 173 -1389 819 -1456 1636 -14 180 -14 12042 0
12222 69 845 692 1519 1526 1648 137 22 11262 22 11411 1z"/>
<path d="M83780 30519 c-277 -36 -573 -144 -803 -295 -519 -340 -834 -867
-887 -1484 -14 -162 -13 -12112 1 -12275 41 -479 240 -900 585 -1236 258 -251
546 -411 889 -495 238 -58 -170 -54 5913 -54 3847 0 5614 3 5672 11 215 26
419 85 605 173 613 292 1032 878 1104 1548 15 136 15 12250 0 12386 -41 377
-198 747 -441 1037 -320 382 -763 623 -1258 684 -103 13 -11280 13 -11380 0z
m11399 -155 c193 -28 329 -69 511 -156 568 -269 943 -794 1020 -1428 7 -57 10
-2081 10 -6177 0 -6629 4 -6188 -54 -6414 -114 -451 -402 -845 -793 -1088
-203 -126 -424 -209 -673 -253 -62 -11 -1084 -13 -5730 -13 l-5655 0 -115 23
c-808 164 -1388 808 -1460 1622 -6 76 -10 2147 -10 6125 0 3978 4 6049 10
6125 26 292 116 564 268 808 275 442 737 746 1257 826 76 12 964 14 5699 15
5030 1 5619 -1 5715 -15z"/>
<path d="M100290 30519 c-189 -24 -407 -88 -579 -170 -629 -298 -1047 -897
-1110 -1589 -15 -159 -15 -12150 -1 -12304 23 -241 81 -456 179 -661 104 -218
197 -351 365 -524 267 -274 570 -449 931 -537 238 -58 -169 -54 5908 -54 3761
0 5611 4 5672 10 906 104 1615 820 1714 1732 15 136 15 12230 0 12366 -72 667
-467 1240 -1059 1537 -171 86 -317 135 -540 183 -68 14 -581 16 -5745 18
-3118 1 -5699 -2 -5735 -7z m11484 -167 c786 -167 1359 -791 1445 -1574 15
-134 15 -12215 1 -12343 -47 -405 -215 -765 -494 -1053 -298 -308 -673 -494
-1096 -542 -67 -8 -1742 -10 -5710 -8 l-5615 3 -121 27 c-275 62 -505 166
-722 327 -401 297 -663 769 -712 1279 -14 151 -14 12126 0 12277 23 236 86
452 196 665 274 531 785 885 1389 963 17 2 2573 4 5680 3 l5650 -1 109 -23z"/>
</g>
</svg>
